<svg xmlns="http://www.w3.org/2000/svg" width="2048" height="2048" viewBox="0 0 2048 2048" version="1.1"><g x="0" y="0"><g x="0" y="0"><path d="M 1645 1673.5 Q 1627 1667, 1607 1666 L 1551 1670 L 1362 1683 L 1012 1720 Q 881 1734, 816 1742.5 Q 751 1751, 626.5 1772 Q 502 1793, 467.5 1809 Q 433 1825, 392 1848 Q 351 1871, 326 1874.5 Q 301 1878, 237 1837 Q 176 1800, 147.5 1777 Q 119 1754, 107.5 1733 Q 96 1712, 95.5 1695 Q 95 1678, 97 1655 Q 101 1616, 104.5 1588.5 Q 108 1561, 109 1534 L 137 736 Q 139 654, 139.5 617.5 Q 140 581, 137 523 Q 134 476, 127 441.5 Q 120 407, 117 372 Q 114 337, 180 329 Q 203 327, 284 348.5 Q 365 370, 387.5 409 Q 410 448, 411 470 Q 412 492, 407 534 Q 402 566, 397 645 Q 392 724, 389 796 L 353 1528 Q 350 1577, 369.5 1601.5 Q 389 1626, 537 1608 L 1030 1547 L 1685 1472 Q 1775 1532.75, 1645 1673.5 Z" fill="black" stroke-width="1"></path></g><g x="0" y="0"><path d="M 1685 1472 L 1687 1252 Q 1688 1116, 1685 1029 L 1676 856 Q 1666 668, 1662.5 622 Q 1659 576, 1647.5 497 Q 1636 418, 1621.5 361.5 Q 1607 305, 1604.5 281 Q 1602 257, 1611.5 237 Q 1621 217, 1662 196.5 Q 1703 176, 1748 176 Q 1791 177, 1831 198.5 Q 1871 220, 1889 250 Q 1907 280, 1913.5 327 Q 1920 374, 1922.5 449.5 Q 1925 525, 1927 597 L 1936 1246 L 1939 1408 Q 1939 1466, 1940.5 1493 Q 1942 1520, 1947 1576 Q 1952 1632, 1952 1658 Q 1951 1703, 1933.5 1756.5 Q 1916 1810, 1840 1807 Q 1825 1807, 1810 1801.5 Q 1795 1796, 1771 1775 L 1691 1703 Q 1483 1557.5, 1685 1472 Z" fill="black" stroke-width="1"></path></g></g></svg>