<svg xmlns="http://www.w3.org/2000/svg" width="2048" height="2048" viewBox="0 0 2048 2048" version="1.1"><g x="0" y="0"><g x="0" y="0"><path d="M 807 768 L 568 793 Q 504 800, 457 809 Q 410 818, 378.5 827 Q 347 836, 332 834 Q 283 830, 257 799 Q 231 768, 227.5 753 Q 224 738, 225 722 Q 226 703, 234 689.5 Q 242 676, 288 624 Q 334 572, 362 530 Q 390 488, 420 436.5 Q 450 385, 469.5 345 Q 489 305, 506.5 255.5 Q 524 206, 530 185 L 542 139 Q 552 108, 578 107 Q 599 107, 658.5 156.5 Q 718 206, 731 229.5 Q 744 253, 744 268 Q 742 299, 682 371 L 544 535 Q 485 605, 463 628 Q 441 651, 445 662 Q 451 685, 508 677 L 676 655 Q 957 619, 1166 602 L 1424 582 Q 1500 577, 1556.5 562.5 Q 1613 548, 1629 548 Q 1676 550, 1721.5 596.5 Q 1767 643, 1795.5 683.5 Q 1824 724, 1822 753 Q 1821 763, 1818.5 768.5 Q 1816 774, 1801.5 802 Q 1787 830, 1771 893 L 1747 984 Q 1703 1148, 1663 1259.5 Q 1623 1371, 1599 1428 Q 1575 1485, 1529.5 1578.5 Q 1484 1672, 1421.5 1744.5 Q 1359 1817, 1256 1881.5 Q 1153 1946, 1093 1943 Q 1059 1942, 1042.5 1927 Q 1026 1912, 1017 1897.5 Q 1008 1883, 984 1834 Q 960 1785, 930.5 1747.5 Q 901 1710, 881 1690 L 853 1663 Q 846 1658, 844 1652.5 Q 842 1647, 843 1640.5 Q 844 1634, 862 1641 L 901 1660 Q 1024 1721, 1098 1723 Q 1184 1727, 1235.5 1672.5 Q 1287 1618, 1370 1489.5 Q 1453 1361, 1512.5 1172 Q 1572 983, 1585.5 909.5 Q 1599 836, 1602 809 Q 1605 782, 1605.5 760.5 Q 1606 739, 1600 726 Q 1575 683, 1443 693 L 935 733 Q 881 750.5, 807 768 Z" fill="black" stroke-width="1"></path></g><g x="0" y="0"><path d="M 935 733 Q 999 781, 1010 791.5 Q 1021 802, 1028.5 819 Q 1036 836, 1037.5 852.5 Q 1039 869, 1033 890 Q 1017 946, 968.5 1030.5 Q 920 1115, 837 1244.5 Q 754 1374, 590.5 1528.5 Q 427 1683, 324 1737 L 278 1761 Q 256 1773, 248.5 1771 Q 241 1769, 237.5 1763 Q 234 1757, 237.5 1750 Q 241 1743, 258 1723 L 291 1683 L 350 1615 Q 393 1564, 416.5 1533 Q 440 1502, 523 1386.5 Q 606 1271, 645 1213 Q 684 1155, 718 1092.5 Q 752 1030, 780 971.5 Q 808 913, 824.5 872 Q 841 831, 847 818 Q 853 805, 850.5 784.5 Q 848 764, 807 768 L 935 733 Z" fill="black" stroke-width="1"></path></g></g></svg>