<svg xmlns="http://www.w3.org/2000/svg" width="2048" height="2048" viewBox="0 0 2048 2048" version="1.1"><g x="0" y="0"><g x="0" y="0"><path d="M 678 551 L 636 423 Q 620 376, 611.5 369.5 Q 603 363, 583 361 Q 554 359, 491.5 374 Q 429 389, 405.5 399 Q 382 409, 319 443.5 Q 256 478, 227 477 Q 177 476, 146.5 427.5 Q 116 379, 110.5 355.5 Q 105 332, 105 303 Q 105 292, 108.5 286.5 Q 112 281, 122.5 279 Q 133 277, 159 276.5 Q 185 276, 260.5 269.5 Q 336 263, 447.5 229.5 Q 559 196, 608.5 173 Q 658 150, 678 148 Q 723 145, 745 177 Q 767 209, 792 326.5 Q 817 444, 877.5 592.5 Q 938 741, 1041 909.5 Q 1144 1078, 1238.5 1209 Q 1333 1340, 1441.5 1437 Q 1550 1534, 1625 1593 Q 1700 1652, 1749 1684 L 1868 1763 L 1928 1808 Q 1943 1820, 1941.5 1835 Q 1940 1850, 1914 1852 L 1846 1859 L 1769 1868 L 1715 1874 Q 1686 1878, 1639 1890 Q 1592 1902, 1579 1901 Q 1545 1901, 1506.5 1872.5 Q 1468 1844, 1447 1820 L 1332 1695 Q 1278 1638, 1194.5 1526.5 Q 1111 1415, 1033 1294 Q 955 1173, 911 1092.5 Q 867 1012, 796 854 Q 725 696, 678 551 Z" fill="black" stroke-width="1"></path></g></g></svg>