<?xml version="1.0" encoding="UTF-8" standalone="no"?>
<!DOCTYPE svg PUBLIC "-//W3C//DTD SVG 1.1//EN" "http://www.w3.org/Graphics/SVG/1.1/DTD/svg11.dtd">
<svg width="100%" height="100%" viewBox="0 0 2050 2050" version="1.1" xmlns="http://www.w3.org/2000/svg" xmlns:xlink="http://www.w3.org/1999/xlink" xml:space="preserve" style="fill-rule:evenodd;clip-rule:evenodd;stroke-linejoin:round;stroke-miterlimit:1.41421;">
    <g id="outline" transform="matrix(0.497573,0,0,0.497573,512.5,512.5)">
        <path d="M152.107,751.517C186.254,727.459 229.656,736.438 267.981,758.342C306.119,780.139 373.681,859.481 393.245,882.657C413.141,906.227 550.944,1098.02 584.829,1149.85C618.714,1201.67 797.188,1414.71 815.491,1429.09C833.089,1442.91 849.648,1441.97 861.988,1429.84C895.841,1396.56 1215.43,918.098 1250.18,864.301C1298.84,788.967 1726.34,205.182 1746.35,181.493C1814.87,100.377 1874.49,118.942 1895.14,136.378C1930.32,166.075 1910.06,221.213 1895.97,250.403C1885.72,271.623 1473.82,1046.47 1446.5,1093.43C1418.51,1141.55 1077.62,1755.43 953.742,1895.39C920.943,1932.45 846.866,1970.97 779.424,1938.96C732.442,1916.67 680.657,1841.35 658.993,1816.16C566.194,1708.26 472.439,1538.14 374.421,1343.99C327.894,1251.84 175.114,911.746 147.809,846.207C140.939,829.718 128.666,768.032 152.107,751.517Z"/>
    </g>
    <g id="track0">
        <path d="M624.776,918.473L935.169,1350.59" style="fill:none;"/>
    </g>
    <g id="track1">
        <path d="M935.169,1350.59L1433.86,607.529" style="fill:none;"/>
    </g>
</svg>
