<svg xmlns="http://www.w3.org/2000/svg" width="2048" height="2048" viewBox="0 0 2048 2048" version="1.1"><g x="0" y="0"><g x="0" y="0"><path d="M 695.5 346 Q 691 342, 678 343 L 627 347 Q 603 349, 562.5 355 Q 522 361, 432.5 376 Q 343 391, 308 390 Q 264 390, 243.5 377.5 Q 223 365, 201 333.5 Q 179 302, 179 264 Q 179 250, 189.5 229.5 Q 200 209, 284 205 L 443 198 Q 515 195, 721 176.5 Q 927 158, 1185 140 L 1367 128 Q 1433 124, 1462 119 Q 1491 114, 1526 105.5 Q 1561 97, 1593 97 Q 1646 99, 1679.5 112 Q 1713 125, 1795.5 177.5 Q 1878 230, 1868 325 Q 1865 345, 1855 371 L 1830 425 Q 1817 452, 1806.5 481.5 Q 1796 511, 1761.5 627.5 Q 1727 744, 1662 937 Q 1597 1130, 1506 1200 Q 1415 1270, 1369.5 1290 Q 1324 1310, 1288 1309 Q 1272 1309, 1259.5 1302.5 Q 1247 1296, 1216.5 1247.5 Q 1186 1199, 1098 1102 L 1062 1063 Q 1053 1055, 1055 1044 Q 1057 1033, 1076 1041 L 1133 1068 Q 1186 1094, 1246 1094 Q 1334 1096, 1372.5 1064 Q 1411 1032, 1436.5 986.5 Q 1462 941, 1506 823 Q 1550 705, 1579.5 595 Q 1609 485, 1614.5 435.5 Q 1620 386, 1620 363 Q 1619 334, 1611 321 Q 1603 308, 1582 294 Q 1561 280, 1372 284 Q 1089 291, 910 314 L 695.5 346 Z" fill="black" stroke-width="1"></path></g></g></svg>