<svg xmlns="http://www.w3.org/2000/svg" width="2048" height="2048" viewBox="0 0 2048 2048" version="1.1"><g x="0" y="0"><g x="0" y="0"><path d="M 1053 1006 L 1164 859 Q 1191 823, 1238.5 746.5 Q 1286 670, 1299.5 645.5 Q 1313 621, 1343 560 Q 1373 499, 1384 474 L 1416 384 Q 1431 340, 1431.5 316.5 Q 1432 293, 1422.5 283.5 Q 1413 274, 1363 277 L 858 312 Q 807 316, 721.5 327.5 Q 636 339, 558 356 Q 480 373, 458.5 379.5 Q 437 386, 429 386 Q 409 387, 375 368 Q 341 349, 317.5 326 Q 294 303, 276.5 282.5 Q 259 262, 256 245 Q 253 228, 270 216 Q 287 204, 363 201 L 536 196 Q 637 194, 1099 152 L 1290 135 Q 1406 125, 1465.5 105 Q 1525 85, 1542 84 Q 1603 82, 1680 162 Q 1757 242, 1764.5 290 Q 1772 338, 1761 368 Q 1754 385, 1745 395 L 1693 432 Q 1675 446, 1659 467.5 Q 1643 489, 1587 570 Q 1531 651, 1417 811 L 1200 1115 L 1101 1240 Q 1015 1335, 960.5 1389 Q 906 1443, 796 1534 Q 686 1625, 564.5 1697.5 Q 443 1770, 335.5 1811 Q 228 1852, 176 1861 L 99 1875 Q 76 1880, 70 1872 Q 64 1864, 68 1857 Q 72 1850, 88 1841 L 159 1801 Q 420 1654, 550.5 1538.5 Q 681 1423, 768.5 1337 Q 856 1251, 869 1235 L 962 1123 L 1053 1006 Z" fill="black" stroke-width="1"></path></g><g x="0" y="0"><path d="M 962 1123 L 550 799 Q 499 760, 477 743 L 405 692 Q 388 680, 373 672 Q 358 664, 356.5 655.5 Q 355 647, 360 641 Q 365 635, 384.5 635.5 Q 404 636, 429 644 L 489 666 Q 614 713, 1053 1006 L 1200 1115 L 1480 1316 Q 1642 1433, 1713.5 1481 Q 1785 1529, 1829 1564.5 Q 1873 1600, 1913 1651.5 Q 1953 1703, 1964.5 1780 Q 1976 1857, 1977 1902 Q 1978 1947, 1963 1956 Q 1948 1965, 1932 1965 Q 1875 1967, 1786 1883 L 1627 1736 Q 1566 1681, 1403.5 1523.5 Q 1241 1366, 1101 1240 L 962 1123 Z" fill="black" stroke-width="1"></path></g></g></svg>