<svg xmlns="http://www.w3.org/2000/svg" width="2048" height="2048" viewBox="0 0 2048 2048" version="1.1"><g x="0" y="0"><g x="0" y="0"><path d="M 841 1815 L 469 1841 Q 432 1844, 387 1849 Q 342 1854, 304.5 1865.5 Q 267 1877, 256 1878 Q 226 1881, 202.5 1869.5 Q 179 1858, 147.5 1827.5 Q 116 1797, 104.5 1779 Q 93 1761, 93 1735 Q 93 1707, 121 1673 L 161 1626 Q 203 1574, 267 1464 L 349 1322 L 506 1041 Q 551 960, 634 799.5 Q 717 639, 751 565 L 850 345 L 889 257 Q 923 187, 943 179 Q 963 171, 978 172 Q 1020 176, 1062 215.5 Q 1104 255, 1120.5 290 Q 1137 325, 1137 353 Q 1136 384, 1127 402.5 Q 1118 421, 1046 537 L 421 1544 L 369 1626 Q 346 1676, 415 1674 L 832 1663 Q 924 1661, 1103 1646.5 Q 1282 1632, 1397 1619.5 Q 1512 1607, 1599 1585 Q 1686 1563, 1713 1561 Q 1800 1555, 1877.5 1615 Q 1955 1675, 1954 1721 Q 1953 1739, 1937.5 1763 Q 1922 1787, 1870 1786 L 1585 1781 Q 1522 1780, 1381.5 1789 Q 1241 1798, 1074 1804.5 Q 907 1811, 841 1815 Z" fill="black" stroke-width="1"></path></g></g></svg>