<svg xmlns="http://www.w3.org/2000/svg" width="2048" height="2048" viewBox="0 0 2048 2048" version="1.1"><g x="0" y="0"><g x="0" y="0"><path d="M 942 363 L 735 379 Q 640 387, 615 390.5 Q 590 394, 481.5 414.5 Q 373 435, 329 432 Q 200 427, 166.5 370.5 Q 133 314, 134 284 Q 135 263, 146 253.5 Q 157 244, 195 244 L 353 248 Q 394 250, 515.5 243 Q 637 236, 832 226 L 1403 200 Q 1512 195, 1559 194.5 Q 1606 194, 1623 193.5 Q 1640 193, 1669 190 Q 1698 187, 1728.5 180.5 Q 1759 174, 1767 173 Q 1818 171, 1856.5 204 Q 1895 237, 1904 266.5 Q 1913 296, 1913 315 Q 1912 367, 1856 367 Q 1848 368, 1795.5 359.5 Q 1743 351, 1598 351 Q 1380 352, 1153 362 L 942 363 Z" fill="black" stroke-width="1"></path></g></g></svg>