<svg xmlns="http://www.w3.org/2000/svg" width="2048" height="2048" viewBox="0 0 2048 2048" version="1.1"><g x="0" y="0"><g x="0" y="0"><path d="M 1563.5 669.5 Q 1582 633, 1589 586 L 1613 410 Q 1618 369, 1617 357 Q 1616 345, 1608 338 Q 1600 331, 1572 332 L 1252 351 L 1022 368 L 774 389 Q 762 390, 711.5 397 Q 661 404, 652 402 Q 620 399, 592 366 Q 564 333, 550.5 309.5 Q 537 286, 533 272 Q 529 258, 528.5 227.5 Q 528 197, 599 198 L 723 200 Q 772 201, 986 189 Q 1200 177, 1317 163.5 Q 1434 150, 1489.5 142 Q 1545 134, 1574.5 126.5 Q 1604 119, 1635 107.5 Q 1666 96, 1676 94 Q 1716 89, 1769.5 122.5 Q 1823 156, 1831 195.5 Q 1839 235, 1839 256 Q 1838 278, 1833 295 Q 1828 312, 1812.5 357.5 Q 1797 403, 1789 435.5 Q 1781 468, 1771 517 L 1739 668 Q 1731 704, 1731.5 713.5 Q 1647.5 801.5, 1563.5 669.5 Z" fill="black" stroke-width="1"></path></g><g x="0" y="0"><path d="M 667 804 Q 689 801, 793.5 793.5 Q 898 786, 930 783 L 1437 736 Q 1494 731, 1519.5 718.5 Q 1545 706, 1563.5 669.5 L 1731.5 713.5 Q 1732 723, 1737.5 741.5 Q 1743 760, 1745.5 768 Q 1748 776, 1748 791 Q 1747 813, 1739 832.5 Q 1731 852, 1708.5 874 Q 1686 896, 1583 901 L 1443 908 Q 1132 924, 751 983 Q 584 883.5, 667 804 Z" fill="black" stroke-width="1"></path></g></g></svg>