<svg xmlns="http://www.w3.org/2000/svg" width="2048" height="2048" viewBox="0 0 2048 2048" version="1.1"><g x="0" y="0"><g x="0" y="0"><path d="M 612 828 L 578 837 Q 562 842, 555.5 841.5 Q 549 841, 545.5 834 Q 542 827, 565 812 L 606 785 Q 841 631, 965 479.5 Q 1089 328, 1117 284.5 Q 1145 241, 1169.5 199.5 Q 1194 158, 1205.5 130.5 Q 1217 103, 1226.5 87 Q 1236 71, 1265 69 Q 1296 68, 1344.5 96.5 Q 1393 125, 1409 165.5 Q 1425 206, 1425 231 Q 1424 250, 1418 260.5 Q 1412 271, 1399 280 L 1375 295 Q 1365 302, 1353 311.5 Q 1341 321, 1325 335 Q 1309 349, 1201.5 450.5 Q 1094 552, 990.5 628 Q 887 704, 775.5 759 Q 664 814, 612 828 Z" fill="black" stroke-width="1"></path></g><g x="0" y="0"><path d="M 1087 1105 Q 1042 1132, 860 1244 Q 678 1356, 500 1397 L 470 1404 Q 458 1407, 454.5 1400 Q 451 1393, 465 1384 L 503 1361 Q 659 1267, 812 1154.5 Q 965 1042, 1045 965.5 Q 1125 889, 1217 791.5 Q 1309 694, 1338 652 Q 1367 610, 1382.5 583.5 Q 1398 557, 1409 547.5 Q 1420 538, 1447 538 Q 1482 539, 1536.5 577 Q 1591 615, 1592 647 Q 1593 679, 1587 694 Q 1580 709, 1565.5 726.5 Q 1551 744, 1510 779 Q 1469 814, 1410 861 L 1352 909 L 1197 1028 L 1087 1105 Z" fill="black" stroke-width="1"></path></g></g></svg>