<svg xmlns="http://www.w3.org/2000/svg" width="2048" height="2048" viewBox="0 0 2048 2048" version="1.1"><g x="0" y="0"><g x="0" y="0"><path d="M 1022 365 L 566 425 Q 486 436, 405.5 450 Q 325 464, 299 464 Q 246 465, 196.5 437.5 Q 147 410, 130 378.5 Q 113 347, 113 328 Q 113 319, 121.5 302.5 Q 130 286, 209 282 L 339 277 L 552 259 L 831 234 L 1296 192 L 1558 169 Q 1648 162, 1717.5 149 Q 1787 136, 1799 135 Q 1847 135, 1882 172.5 Q 1917 210, 1927 235.5 Q 1937 261, 1935 277 Q 1932 299, 1919.5 307.5 Q 1907 316, 1876 316 L 1603 322 Q 1438 326, 1233 347 L 1022 365 Z" fill="black" stroke-width="1"></path></g></g></svg>