<svg xmlns="http://www.w3.org/2000/svg" width="2048" height="2048" viewBox="0 0 2048 2048" version="1.1"><g x="0" y="0"><g x="0" y="0"><path d="M 1022 365 L 566 425 Q 486 436, 405.5 450 Q 325 464, 299 464 Q 246 465, 196.5 437.5 Q 147 410, 130 378.5 Q 113 347, 113 328 Q 113 319, 121.5 302.5 Q 130 286, 209 282 L 339 277 L 552 259 L 831 234 L 1296 192 L 1558 169 Q 1648 162, 1717.5 149 Q 1787 136, 1799 135 Q 1847 135, 1882 172.5 Q 1917 210, 1927 235.5 Q 1937 261, 1935 277 Q 1932 299, 1919.5 307.5 Q 1907 316, 1876 316 L 1603 322 Q 1438 326, 1233 347 L 1022 365 Z" fill="black" stroke-width="1"></path></g><g x="0" y="0"><path d="M 1233 347 L 1223 698 L 1217 858 Q 1216 895, 1209.5 912.5 Q 1203 930, 1184.5 943.5 Q 1166 957, 1069 961 L 941 967 Q 829 973, 740.5 1005 Q 652 1037, 612.5 1105 Q 573 1173, 561 1216 Q 549 1259, 548.5 1321 Q 548 1383, 582 1455 Q 639 1582, 776.5 1660.5 Q 914 1739, 1089 1738 Q 1233 1738, 1338.5 1696 Q 1444 1654, 1498.5 1615.5 Q 1553 1577, 1580 1553 L 1670 1468 Q 1713 1431, 1756 1431 Q 1787 1432, 1818.5 1450.5 Q 1850 1469, 1850.5 1510.5 Q 1851 1552, 1829 1592 Q 1812 1622, 1749 1687.5 Q 1686 1753, 1509.5 1833.5 Q 1333 1914, 1094 1914 Q 743 1915, 574.5 1759.5 Q 406 1604, 376 1494.5 Q 346 1385, 344.5 1311 Q 343 1237, 361 1167 Q 400 1010, 528.5 923.5 Q 657 837, 850 810 L 937 798 Q 976 793, 995.5 777.5 Q 1015 762, 1021 695 Q 1027 628, 1027 589 L 1022 365 L 1233 347 Z" fill="black" stroke-width="1"></path></g></g></svg>