<svg xmlns="http://www.w3.org/2000/svg" width="2048" height="2048" viewBox="0 0 2048 2048" version="1.1"><g x="0" y="0"><g x="0" y="0"><path d="M 936 561 L 1317 529 Q 1471 517, 1585 502 Q 1699 487, 1718 486 Q 1766 486, 1829.5 508 Q 1893 530, 1902.5 547.5 Q 1912 565, 1912.5 579.5 Q 1913 594, 1904 611 Q 1881 653, 1832 659 Q 1818 661, 1774.5 656.5 Q 1731 652, 1633 655 L 1427 663 Q 1184 673, 915 698 L 755 713 L 483 764 Q 441 772, 400 782 Q 359 792, 334 799 Q 309 806, 285 806 Q 230 807, 181 776 Q 132 745, 134 691 Q 135 649, 180.5 638.5 Q 226 628, 254.5 626 Q 283 624, 360 620.5 Q 437 617, 544 603 L 785 573 L 936 561 Z" fill="black" stroke-width="1"></path></g></g></svg>