<svg xmlns="http://www.w3.org/2000/svg" width="2048" height="2048" viewBox="0 0 2048 2048" version="1.1"><g x="0" y="0"><g x="0" y="0"><path d="M 936 561 L 1317 529 Q 1471 517, 1585 502 Q 1699 487, 1718 486 Q 1766 486, 1829.5 508 Q 1893 530, 1902.5 547.5 Q 1912 565, 1912.5 579.5 Q 1913 594, 1904 611 Q 1881 653, 1832 659 Q 1818 661, 1774.5 656.5 Q 1731 652, 1633 655 L 1427 663 Q 1184 673, 915 698 L 755 713 L 483 764 Q 441 772, 400 782 Q 359 792, 334 799 Q 309 806, 285 806 Q 230 807, 181 776 Q 132 745, 134 691 Q 135 649, 180.5 638.5 Q 226 628, 254.5 626 Q 283 624, 360 620.5 Q 437 617, 544 603 L 785 573 L 936 561 Z" fill="black" stroke-width="1"></path></g><g x="0" y="0"><path d="M 785 573 L 808 407 Q 814 358, 816 329 Q 818 300, 821 240 Q 824 180, 824.5 148.5 Q 825 117, 830 86 Q 835 55, 894 53 Q 936 53, 976 77 Q 1016 101, 1024.5 130 Q 1033 159, 1033.5 177 Q 1034 195, 1027 214 Q 1025 220, 1008 255 Q 991 290, 985 318 Q 979 346, 966 411 L 936 561 L 915 698 L 854 1005 Q 849 1027, 848.5 1052.5 Q 848 1078, 852 1090 Q 856 1108, 867 1116.5 Q 878 1125, 893 1123.5 Q 908 1122, 954 1115 L 1180 1081 Q 1424 1045, 1464 1045 Q 1529 1047, 1584.5 1095 Q 1640 1143, 1655 1166 Q 1670 1189, 1670.5 1206.5 Q 1671 1224, 1651 1265 Q 1643 1281, 1612 1350.5 Q 1581 1420, 1533 1497.5 Q 1485 1575, 1397 1684.5 Q 1309 1794, 1212.5 1871 Q 1116 1948, 981 1986 L 946 1996 Q 934 2000, 930.5 1996 Q 927 1992, 926.5 1985.5 Q 926 1979, 934 1967 Q 947 1948, 977 1923 L 1034 1877 Q 1179 1760, 1277.5 1615.5 Q 1376 1471, 1413.5 1394.5 Q 1451 1318, 1462.5 1279 Q 1474 1240, 1474 1222 Q 1473 1182, 1434 1187 L 961 1248 Q 887 1258, 821.5 1277.5 Q 756 1297, 747 1297 Q 728 1298, 698.5 1279.5 Q 669 1261, 658 1229 Q 647 1197, 646.5 1183.5 Q 646 1170, 650 1159 Q 652 1153, 665 1131.5 Q 678 1110, 683 1091 Q 688 1072, 708 966 L 755 713 L 785 573 Z" fill="black" stroke-width="1"></path></g></g></svg>