<svg xmlns="http://www.w3.org/2000/svg" width="2048" height="2048" viewBox="0 0 2048 2048" version="1.1"><g x="0" y="0"><g x="0" y="0"><path d="M 681 802 L 1033 453 Q 1133 354, 1208.5 262.5 Q 1284 171, 1308 133.5 Q 1332 96, 1342 89 Q 1352 82, 1370 80 Q 1396 78, 1445.5 105.5 Q 1495 133, 1524.5 181.5 Q 1554 230, 1553 254 Q 1551 278, 1536.5 293.5 Q 1522 309, 1500 320 L 1460 339 Q 1381 381, 1217 524 L 918 785 Q 901 800, 793 887 Q 685 974, 669.5 1007.5 Q 654 1041, 655 1054 Q 656 1075, 676.5 1096.5 Q 697 1118, 750 1149 L 1093 1358 Q 1190 1418, 1332.5 1521.5 Q 1475 1625, 1520 1675 Q 1565 1725, 1580 1757.5 Q 1595 1790, 1600 1821.5 Q 1605 1853, 1604 1875 Q 1601 1903, 1584.5 1934.5 Q 1568 1966, 1521 1970 Q 1464 1976, 1417.5 1932.5 Q 1371 1889, 1272 1783 Q 1173 1677, 1053 1573 Q 933 1469, 809.5 1368.5 Q 686 1268, 589.5 1213.5 Q 493 1159, 472 1141.5 Q 451 1124, 447.5 1086.5 Q 444 1049, 444 1037 Q 444 1022, 448 1013.5 Q 452 1005, 459 999 Q 466 993, 491 974 Q 516 955, 585 891.5 Q 654 828, 681 802 Z" fill="black" stroke-width="1"></path></g></g></svg>