<svg xmlns="http://www.w3.org/2000/svg" width="2048" height="2048" viewBox="0 0 2048 2048" version="1.1"><g x="0" y="0"><g x="0" y="0"><path d="M 1003 1920 L 1088 1835 Q 1212 1711, 1278.5 1621.5 Q 1345 1532, 1404.5 1442 Q 1464 1352, 1485.5 1314 Q 1507 1276, 1548.5 1195.5 Q 1590 1115, 1605 1078 L 1630 1012 Q 1643 977, 1641.5 958.5 Q 1640 940, 1630 932 Q 1620 924, 1585 925 L 1441 932 Q 1212 944, 935.5 975 Q 659 1006, 550 1026 Q 441 1046, 380 1064 Q 319 1082, 302 1082 Q 247 1084, 182.5 1022 Q 118 960, 120 925 Q 120 918, 125 907 L 140 874 Q 148 854, 158 795.5 Q 168 737, 172 706.5 Q 176 676, 181.5 615 Q 187 554, 189 505 L 196 317 Q 196 315, 191.5 245 Q 187 175, 188 155 Q 189 85, 240 81 Q 287 78, 336 109.5 Q 385 141, 399 164 Q 413 187, 413.5 206.5 Q 414 226, 409 254 Q 392 339, 387.5 372.5 Q 383 406, 377 468.5 Q 371 531, 369 570 L 355 808 Q 352 845, 363 860 Q 374 875, 457 865 L 610 848 Q 902 816, 1071 794 L 1267 769 Q 1515 738, 1618 709.5 Q 1721 681, 1735 680 Q 1787 679, 1855.5 754.5 Q 1924 830, 1926 873 Q 1928 916, 1923 929 Q 1920 935, 1916 941 L 1878 986 Q 1865 1001, 1848.5 1027 Q 1832 1053, 1821.5 1071.5 Q 1811 1090, 1739.5 1221 Q 1668 1352, 1546.5 1512 Q 1425 1672, 1353.5 1734 Q 1282 1796, 1202 1854 Q 1122 1912, 1059 1940 L 1008 1963 Q 997 1968, 989 1968.5 Q 981 1969, 978.5 1967 Q 976 1965, 974.5 1961.5 Q 973 1958, 972.5 1954.5 Q 972 1951, 1003 1920 Z" fill="black" stroke-width="1"></path></g></g></svg>