<svg xmlns="http://www.w3.org/2000/svg" width="2048" height="2048" viewBox="0 0 2048 2048" version="1.1"><g x="0" y="0"><g x="0" y="0"><path d="M 656 854 L 1316 784 L 1480 775 L 1675 763 Q 1728 760, 1774.5 751 Q 1821 742, 1836 742 Q 1884 743, 1941.5 784 Q 1999 825, 1999 882 Q 1998 903, 1983.5 927 Q 1969 951, 1910 945 L 1770 931 Q 1671 922, 1469 929 L 1304 937 Q 913 978, 658 1015 L 491 1033 L 324 1061 Q 240 1075, 203.5 1077.5 Q 167 1080, 131.5 1060.5 Q 96 1041, 73 1000.5 Q 50 960, 49 942 Q 48 924, 54 911 Q 67 884, 114 882 L 230 886 Q 288 888, 358 880 L 488 866 L 656 854 Z" fill="black" stroke-width="1"></path></g></g></svg>