<svg xmlns="http://www.w3.org/2000/svg" width="2048" height="2048" viewBox="0 0 2048 2048" version="1.1"><g x="0" y="0"><g x="0" y="0"><path d="M 656 854 L 1316 784 L 1480 775 L 1675 763 Q 1728 760, 1774.5 751 Q 1821 742, 1836 742 Q 1884 743, 1941.5 784 Q 1999 825, 1999 882 Q 1998 903, 1983.5 927 Q 1969 951, 1910 945 L 1770 931 Q 1671 922, 1469 929 L 1304 937 Q 913 978, 658 1015 L 491 1033 L 324 1061 Q 240 1075, 203.5 1077.5 Q 167 1080, 131.5 1060.5 Q 96 1041, 73 1000.5 Q 50 960, 49 942 Q 48 924, 54 911 Q 67 884, 114 882 L 230 886 Q 288 888, 358 880 L 488 866 L 656 854 Z" fill="black" stroke-width="1"></path></g><g x="0" y="0"><path d="M 1316 784 L 1310 516 Q 1309 499, 1302 391 Q 1295 283, 1288.5 244.5 Q 1282 206, 1283 190 Q 1285 118, 1350 115 Q 1376 114, 1418.5 135 Q 1461 156, 1489.5 194.5 Q 1518 233, 1525.5 259.5 Q 1533 286, 1532 321 Q 1531 346, 1518.5 419 Q 1506 492, 1497 591 L 1480 775 L 1469 929 L 1444 1222 Q 1442 1236, 1427 1317 Q 1412 1398, 1402 1424.5 Q 1392 1451, 1366.5 1490 Q 1341 1529, 1322 1528 Q 1310 1528, 1299 1508 Q 1288 1488, 1290 1427 L 1300 1088 L 1304 937 L 1316 784 Z" fill="black" stroke-width="1"></path></g></g></svg>