<svg xmlns="http://www.w3.org/2000/svg" width="2048" height="2048" viewBox="0 0 2048 2048" version="1.1"><g x="0" y="0"><g x="0" y="0"><path d="M 1068 1244 Q 1188 1121, 1250 1047 Q 1312 973, 1386.5 874.5 Q 1461 776, 1473 744 Q 1485 712, 1485 692 Q 1484 669, 1466 651.5 Q 1448 634, 1344 646 L 1139 670 Q 1112 674, 960 695.5 Q 808 717, 751.5 730.5 Q 695 744, 659 755 L 573 783 Q 531 795, 517 794 Q 473 792, 446 740 Q 419 688, 420 670 Q 420 657, 426.5 646.5 Q 433 636, 455 613.5 Q 477 591, 538.5 517.5 Q 600 444, 644 378.5 Q 688 313, 703.5 284.5 Q 719 256, 734 223 L 758 170 Q 768 148, 787 146 Q 805 145, 847.5 168 Q 890 191, 904.5 216.5 Q 919 242, 918 256 Q 916 270, 884 306 Q 852 342, 840.5 356 Q 829 370, 817 387 L 773 449 Q 722 520, 680 570 L 653 602 Q 638 619, 640.5 623.5 Q 643 628, 660 625 L 743 612 L 1153 551 Q 1204 544, 1304 530.5 Q 1404 517, 1463 504 Q 1522 491, 1532 490 Q 1563 490, 1593.5 512 Q 1624 534, 1661.5 568 Q 1699 602, 1714 622 Q 1729 642, 1729.5 664.5 Q 1730 687, 1714 714 Q 1706 727, 1677 761 Q 1648 795, 1627 822 L 1571 898 Q 1505 987, 1442.5 1068.5 Q 1380 1150, 1216 1323 L 1108 1430 Q 937 1571, 821 1649.5 Q 705 1728, 542 1793 Q 379 1858, 306 1870 L 270 1876 Q 252 1879, 245.5 1876 Q 239 1873, 237.5 1867 Q 236 1861, 250 1853 L 273 1842 Q 429 1768, 575 1663.5 Q 721 1559, 798 1496.5 Q 875 1434, 974 1338 L 1068 1244 Z" fill="black" stroke-width="1"></path></g><g x="0" y="0"><path d="M 974 1338 L 542 1075 L 485 1037 Q 472 1029, 464 1023.5 Q 456 1018, 456.5 1009 Q 457 1000, 481 1004 Q 516 1011, 561 1027 L 612 1046 Q 720 1087, 1068 1244 L 1216 1323 L 1478 1453 Q 1662 1545, 1705 1578.5 Q 1748 1612, 1768.5 1642 Q 1789 1672, 1799.5 1725 Q 1810 1778, 1810 1814 Q 1809 1846, 1800 1873.5 Q 1791 1901, 1760 1902 Q 1717 1904, 1677.5 1874 Q 1638 1844, 1604.5 1815 Q 1571 1786, 1519.5 1739 Q 1468 1692, 1404.5 1642 Q 1341 1592, 1108 1430 L 974 1338 Z" fill="black" stroke-width="1"></path></g></g></svg>