<svg xmlns="http://www.w3.org/2000/svg" width="2048" height="2048" viewBox="0 0 2048 2048" version="1.1"><g x="0" y="0"><g x="0" y="0"><path d="M 927 762 L 468 817 Q 424 823, 391 830 Q 358 837, 350 836 Q 304 834, 263 780 Q 222 726, 226 696 Q 227 683, 233.5 673.5 Q 240 664, 279 621 Q 318 578, 341.5 528.5 Q 365 479, 382.5 436 Q 400 393, 406.5 371.5 Q 413 350, 418.5 317 Q 424 284, 425 267 Q 426 250, 427 217 Q 427 201, 425 187 Q 423 173, 425.5 154.5 Q 428 136, 473 138 Q 544 142, 587.5 183 Q 631 224, 630 267 Q 629 285, 618 315.5 Q 607 346, 555 447 L 466 618 L 451 642 Q 450 651, 459 658 Q 468 665, 529 659 L 687 645 Q 841 632, 981 607 L 1168 592 L 1360 572 Q 1473 561, 1497 555.5 Q 1521 550, 1565.5 538.5 Q 1610 527, 1633 526 Q 1670 526, 1718.5 549 Q 1767 572, 1794 603 Q 1821 634, 1828.5 653.5 Q 1836 673, 1835 696 Q 1834 707, 1822.5 765.5 Q 1811 824, 1802 875 L 1779 1008 Q 1750 1168, 1717.5 1281.5 Q 1685 1395, 1595 1584 Q 1505 1773, 1369 1873 Q 1233 1973, 1149 1971 Q 1096 1970, 1084.5 1951 Q 1073 1932, 1070 1910 Q 1067 1888, 1063 1877.5 Q 1059 1867, 1025.5 1820.5 Q 992 1774, 939 1726 L 913 1703 Q 899 1692, 903 1686.5 Q 907 1681, 917 1684 L 951 1696 Q 989 1710, 1050.5 1724 Q 1112 1738, 1147 1739 Q 1202 1741, 1250 1720 Q 1298 1699, 1345 1649.5 Q 1392 1600, 1425 1543.5 Q 1458 1487, 1491 1408 Q 1524 1329, 1540 1277 Q 1556 1225, 1575.5 1142.5 Q 1595 1060, 1606.5 1002.5 Q 1618 945, 1624 902.5 Q 1630 860, 1633 824 Q 1636 788, 1636.5 766 Q 1637 744, 1631 728 Q 1625 712, 1605.5 701 Q 1586 690, 1511 697 L 1128 737 L 927 762 Z" fill="black" stroke-width="1"></path></g><g x="0" y="0"><path d="M 981 607 Q 1014 525, 1040 437.5 Q 1066 350, 1075.5 303.5 Q 1085 257, 1088 232.5 Q 1091 208, 1091.5 191.5 Q 1092 175, 1089 149.5 Q 1086 124, 1085.5 115.5 Q 1085 107, 1089 98 Q 1097 79, 1123 78 Q 1165 78, 1214.5 103.5 Q 1264 129, 1276.5 150.5 Q 1289 172, 1289 197 Q 1288 212, 1283 229 Q 1278 246, 1268 274.5 Q 1258 303, 1252 324 L 1231 393 L 1168 592 L 1128 737 Q 1054 920, 1019.5 996 Q 985 1072, 857 1304 Q 729 1536, 545 1672.5 Q 361 1809, 260 1829 L 230 1835 Q 216 1838, 211 1831 Q 206 1824, 213 1818 L 232 1804 Q 285 1765, 345.5 1707 Q 406 1649, 500 1527 Q 594 1405, 667.5 1289.5 Q 741 1174, 804.5 1045 Q 868 916, 882 879 L 927 762 L 981 607 Z" fill="black" stroke-width="1"></path></g></g></svg>