<svg xmlns="http://www.w3.org/2000/svg" width="2048" height="2048" viewBox="0 0 2048 2048" version="1.1"><g x="0" y="0"><g x="0" y="0"><path d="M 294.5 1851.5 Q 289 1836, 287.5 1813 Q 286 1790, 286 1750 L 283 755 Q 282 646, 278.5 564.5 Q 275 483, 258.5 432.5 Q 242 382, 239.5 369 Q 237 356, 237 328 Q 237 308, 240.5 293 Q 244 278, 256.5 248.5 Q 269 219, 289 210 Q 309 201, 327 198 L 393 195 L 468 188 Q 562.25 206, 496.5 374 Q 484 378, 478 386.5 Q 472 395, 470.5 409 Q 469 423, 469 447 L 461 869 Q 459 958, 459.5 1146.5 Q 460 1335, 462 1404 L 467 1641 Q 467 1674, 473.5 1702.5 Q 464 2002, 294.5 1851.5 Z" fill="black" stroke-width="1"></path></g></g></svg>