<svg xmlns="http://www.w3.org/2000/svg" width="2048" height="2048" viewBox="0 0 2048 2048" version="1.1"><g x="0" y="0"><g x="0" y="0"><path d="M 294.5 1851.5 Q 289 1836, 287.5 1813 Q 286 1790, 286 1750 L 283 755 Q 282 646, 278.5 564.5 Q 275 483, 258.5 432.5 Q 242 382, 239.5 369 Q 237 356, 237 328 Q 237 308, 240.5 293 Q 244 278, 256.5 248.5 Q 269 219, 289 210 Q 309 201, 327 198 L 393 195 L 468 188 Q 562.25 206, 496.5 374 Q 484 378, 478 386.5 Q 472 395, 470.5 409 Q 469 423, 469 447 L 461 869 Q 459 958, 459.5 1146.5 Q 460 1335, 462 1404 L 467 1641 Q 467 1674, 473.5 1702.5 Q 464 2002, 294.5 1851.5 Z" fill="black" stroke-width="1"></path></g><g x="0" y="0"><path d="M 468 188 L 800 162 Q 837 160, 999.5 150 Q 1162 140, 1283.5 122.5 Q 1405 105, 1482.5 89 Q 1560 73, 1578 72 Q 1624 71, 1692.5 109 Q 1761 147, 1786 223.5 Q 1811 300, 1810 322 Q 1809 337, 1803 354 L 1794 377 Q 1789 391, 1783.5 422 Q 1778 453, 1776 479 L 1757 688 Q 1747 793, 1744.5 865 Q 1742 937, 1739 1031 Q 1736 1125, 1736.5 1142 Q 1737 1159, 1739 1258 L 1748 1708 Q 1748 1742, 1742.5 1777 Q 1737 1812, 1729 1830 Q 1721 1848, 1698 1887.5 Q 1675 1927, 1651 1953 Q 1627 1979, 1581 1977 Q 1566 1977, 1556.5 1972.5 Q 1547 1968, 1541 1962 L 1497 1915 Q 1359.25 1767.25, 1491.5 1699.5 Q 1509 1694, 1520.5 1677.5 Q 1532 1661, 1535 1639.5 Q 1538 1618, 1540 1592 Q 1542 1566, 1543 1547 L 1564 464 Q 1565 362, 1552 337 Q 1539 312, 1514 298 Q 1489 284, 1411 286 L 1215 292 Q 1018 299, 763.5 334.5 Q 509 370, 496.5 374 Q 484 378, 478 386.5 L 468 188 Z" fill="black" stroke-width="1"></path></g></g></svg>