<svg xmlns="http://www.w3.org/2000/svg" width="2048" height="2048" viewBox="0 0 2048 2048" version="1.1"><g x="0" y="0"><g x="0" y="0"><path d="M 375 594 L 374 900 L 385 1234 Q 388 1349, 393 1414 L 402 1549 L 407 1648 Q 408 1687, 394 1739 Q 380 1791, 338 1791 Q 279 1792, 247 1696.5 Q 215 1601, 210 1551 Q 205 1501, 203 1427 L 197 1281 L 185 692 Q 183 625, 181.5 587 Q 180 549, 178.5 516.5 Q 177 484, 175 469 L 168 432 Q 168 421, 170 412 Q 173 403, 197 381.5 Q 221 360, 258 360 Q 277 361, 359 401 L 375 594 Z" fill="black" stroke-width="1"></path></g><g x="0" y="0"><path d="M 359 401 Q 795 325, 1166 307 L 1403 296 Q 1477 293, 1509 288.5 Q 1541 284, 1581.5 270 Q 1622 256, 1637 255 Q 1727 252, 1794.5 310 Q 1862 368, 1870.5 402.5 Q 1879 437, 1879.5 476 Q 1880 515, 1876 589 L 1869 709 Q 1865 773, 1863 822 L 1843 1237 Q 1837 1356, 1827.5 1460 Q 1818 1564, 1807.5 1645 Q 1797 1726, 1775.5 1760 Q 1754 1794, 1724 1794 Q 1701 1795, 1655 1767 Q 1609 1739, 1598 1684 Q 1587 1629, 1589 1604 Q 1589 1593, 1596 1550 Q 1603 1507, 1611 1417.5 Q 1619 1328, 1623 1270 L 1636 1040 Q 1639 974, 1639.5 940.5 Q 1640 907, 1639 841 Q 1637 756, 1635.5 726 Q 1634 696, 1628 636.5 Q 1622 577, 1614 543 Q 1606 509, 1561 483.5 Q 1516 458, 1383 462 L 1234 467 Q 1036 474, 787 513.5 Q 538 553, 375 594 L 359 401 Z" fill="black" stroke-width="1"></path></g></g></svg>