<svg xmlns="http://www.w3.org/2000/svg" width="2048" height="2048" viewBox="0 0 2048 2048" version="1.1"><g x="0" y="0"><g x="0" y="0"><path d="M 1425 1160 L 993 1358 Q 797 1448, 742.5 1466 Q 688 1484, 660 1482 Q 618 1481, 554.5 1442.5 Q 491 1404, 474.5 1375.5 Q 458 1347, 454 1326.5 Q 450 1306, 451 1278 Q 451 1262, 454 1209.5 Q 457 1157, 456 1121 L 441 615 Q 438 546, 438 527 L 434 459 Q 431 418, 429 402.5 Q 427 387, 418.5 346.5 Q 410 306, 407 286.5 Q 404 267, 404 244 Q 404 221, 408 207 Q 425 158, 488 156 Q 534 156, 598 195.5 Q 662 235, 660 295 Q 659 304, 654 330.5 Q 649 357, 648 375.5 Q 647 394, 647 434 L 646 494 L 640 1173 Q 639 1204, 645.5 1226.5 Q 652 1249, 665 1259 Q 678 1269, 711 1268 Q 822 1266, 1154 1137 L 1431 1030 C 1564 998.3333333333333, 1492 1141.6666666666667, 1425 1160 Z" fill="black" stroke-width="1"></path></g></g></svg>