<svg xmlns="http://www.w3.org/2000/svg" width="2048" height="2048" viewBox="0 0 2048 2048" version="1.1"><g x="0" y="0"><g x="0" y="0"><path d="M 1425 1160 L 993 1358 Q 797 1448, 742.5 1466 Q 688 1484, 660 1482 Q 618 1481, 554.5 1442.5 Q 491 1404, 474.5 1375.5 Q 458 1347, 454 1326.5 Q 450 1306, 451 1278 Q 451 1262, 454 1209.5 Q 457 1157, 456 1121 L 441 615 Q 438 546, 438 527 L 434 459 Q 431 418, 429 402.5 Q 427 387, 418.5 346.5 Q 410 306, 407 286.5 Q 404 267, 404 244 Q 404 221, 408 207 Q 425 158, 488 156 Q 534 156, 598 195.5 Q 662 235, 660 295 Q 659 304, 654 330.5 Q 649 357, 648 375.5 Q 647 394, 647 434 L 646 494 L 640 1173 Q 639 1204, 645.5 1226.5 Q 652 1249, 665 1259 Q 678 1269, 711 1268 Q 822 1266, 1154 1137 L 1431 1030 C 1564 998.3333333333333, 1492 1141.6666666666667, 1425 1160 Z" fill="black" stroke-width="1"></path></g><g x="0" y="0"><path d="M 1431 1030 L 1428 707 Q 1427 672, 1422.5 521 Q 1418 370, 1416 331 Q 1414 292, 1411.5 260.5 Q 1409 229, 1405 189.5 Q 1401 150, 1402 136 Q 1404 67, 1468 65 Q 1519 64, 1569.5 105.5 Q 1620 147, 1630.5 164 Q 1641 181, 1642.5 197.5 Q 1644 214, 1640 240 Q 1631 292, 1626 332 Q 1621 372, 1619 399.5 Q 1617 427, 1617 500 L 1614 648 L 1608 1093 Q 1607 1157, 1610 1311.5 Q 1613 1466, 1614 1491 L 1621 1785 Q 1622 1837, 1614.5 1879 Q 1607 1921, 1577.5 1952.5 Q 1548 1984, 1522 1984 Q 1504 1985, 1463 1959 Q 1422 1933, 1414 1880.5 Q 1406 1828, 1407 1808 L 1410 1756 L 1419 1517 Q 1421 1464, 1423 1315 L 1425 1160 L 1431 1030 Z" fill="black" stroke-width="1"></path></g></g></svg>