<svg xmlns="http://www.w3.org/2000/svg" width="2048" height="2048" viewBox="0 0 2048 2048" version="1.1"><g x="0" y="0"><g x="0" y="0"><path d="M 1299 634 L 1245 700 Q 1216 735, 1190 733 Q 1183 733, 1178.5 730.5 Q 1174 728, 1170.5 722 Q 1167 716, 1171 696.5 Q 1175 677, 1185 657 L 1287 444 Q 1316 383, 1334 328 Q 1352 273, 1350.5 250 Q 1349 227, 1304 228 Q 1285 229, 1216 237 L 1083 252 L 691 311 Q 524 337, 475 347 Q 426 357, 411 356 Q 369 356, 292.5 312.5 Q 216 269, 218 223 Q 218 211, 226.5 201 Q 235 191, 259 191 L 283 192 L 472 183 Q 519 181, 702 165 Q 885 149, 1020 129 L 1190 104 Q 1285 90, 1350.5 70.5 Q 1416 51, 1433 50 Q 1476 49, 1548.5 92 Q 1621 135, 1640 168 Q 1659 201, 1659 215 Q 1657 234, 1635 258.5 Q 1613 283, 1567 329 Q 1521 375, 1431 479 Q 1341 583, 1299 634 Z" fill="black" stroke-width="1"></path></g></g></svg>