<svg xmlns="http://www.w3.org/2000/svg" width="2048" height="2048" viewBox="0 0 2048 2048" version="1.1"><g x="0" y="0"><g x="0" y="0"><path d="M 890 1254 L 664 1285 Q 622 1291, 586 1300 L 520 1317 Q 492 1323, 462 1323 Q 424 1324, 394 1311.5 Q 364 1299, 342.5 1262 Q 321 1225, 314 1201.5 Q 307 1178, 302.5 1148 Q 298 1118, 298 1095 L 286 771 Q 284 734, 279 675 Q 274 616, 271 594 Q 268 572, 261.5 534.5 Q 255 497, 254.5 478.5 Q 254 460, 263 441 Q 273 419, 304 399.5 Q 335 380, 375 382 Q 409 384, 430 402.5 Q 451 421, 456.5 432.5 Q 462 444, 462.5 456 Q 463 468, 456 494 Q 450 515, 448 530.5 Q 446 546, 444.5 574.5 Q 443 603, 441 649 Q 439 695, 440 719 L 442 879 Q 442 911, 446.5 976 Q 451 1041, 462 1093.5 Q 473 1146, 490 1155.5 Q 507 1165, 525 1165 Q 543 1166, 615 1153 L 889 1106 L 1060 1096 L 1350 1086 Q 1436 1084, 1452 1072 Q 1582.5 1051.5, 1643 1071 Q 1636 1114, 1622.5 1154.5 Q 1609 1195, 1575 1212 Q 1541 1229, 1487 1226 L 1327 1220 Q 1248 1218, 1061 1236 L 890 1254 Z" fill="black" stroke-width="1"></path></g><g x="0" y="0"><path d="M 1452 1072 Q 1468 1060, 1474 1045.5 Q 1480 1031, 1487 990 L 1513 822 Q 1522 764, 1529 693.5 Q 1536 623, 1538 591 L 1541 527 Q 1544 474, 1543.5 459 Q 1543 444, 1545 438 Q 1550 419, 1581 402 Q 1612 385, 1638 387 Q 1669 391, 1697.5 420.5 Q 1726 450, 1735 467.5 Q 1744 485, 1743 509 Q 1742 520, 1738 539 Q 1734 558, 1723 608.5 Q 1712 659, 1700 717 Q 1688 775, 1668 909 L 1643 1071 Q 1636 1114, 1622.5 1154.5 L 1452 1072 Z" fill="black" stroke-width="1"></path></g><g x="0" y="0"><path d="M 878 1695 Q 883 1579, 885 1512.5 Q 887 1446, 888 1393 L 890 1254 L 889 1106 L 895 476 Q 895 422, 892 365 Q 889 308, 886 277.5 Q 883 247, 877.5 225.5 Q 872 204, 871 199 Q 870 194, 869.5 182 Q 869 170, 873 161 Q 879 145, 907 135 Q 935 125, 963 124 Q 1011 124, 1070.5 165 Q 1130 206, 1121 270 L 1108 317 Q 1104 331, 1100 364 L 1091 432 Q 1087 465, 1084.5 493.5 Q 1082 522, 1076.5 612 Q 1071 702, 1071 730 L 1060 1096 L 1061 1236 Q 1057 1425, 1057 1463 L 1054 1683 Q 936 1829, 878 1695 Z" fill="black" stroke-width="1"></path></g></g></svg>