<svg xmlns="http://www.w3.org/2000/svg" width="2048" height="2048" viewBox="0 0 2048 2048" version="1.1"><g x="0" y="0"><g x="0" y="0"><path d="M 1140 919 L 1231 797 Q 1259 760, 1306.5 682 Q 1354 604, 1391 532 Q 1428 460, 1451 392.5 Q 1474 325, 1482 287 Q 1490 249, 1491.5 218.5 Q 1493 188, 1499 150 Q 1505 112, 1580 107 Q 1627 105, 1670.5 142.5 Q 1714 180, 1730 208 Q 1746 236, 1753.5 262.5 Q 1761 289, 1761.5 306 Q 1762 323, 1745 355 Q 1738 368, 1712.5 409 Q 1687 450, 1618 573.5 Q 1549 697, 1521.5 738 Q 1494 779, 1418 888 L 1308 1045 L 1194 1207 Q 944 1461, 806 1578 Q 668 1695, 510 1766.5 Q 352 1838, 155 1872 L 103 1881 Q 82 1885, 77 1872.5 Q 72 1860, 109 1841 L 176 1808 Q 364 1715, 601.5 1511.5 Q 839 1308, 1028 1051 L 1140 919 Z" fill="black" stroke-width="1"></path></g></g></svg>