<svg xmlns="http://www.w3.org/2000/svg" width="2048" height="2048" viewBox="0 0 2048 2048" version="1.1"><g x="0" y="0"><g x="0" y="0"><path d="M 1140 919 L 1231 797 Q 1259 760, 1306.5 682 Q 1354 604, 1391 532 Q 1428 460, 1451 392.5 Q 1474 325, 1482 287 Q 1490 249, 1491.5 218.5 Q 1493 188, 1499 150 Q 1505 112, 1580 107 Q 1627 105, 1670.5 142.5 Q 1714 180, 1730 208 Q 1746 236, 1753.5 262.5 Q 1761 289, 1761.5 306 Q 1762 323, 1745 355 Q 1738 368, 1712.5 409 Q 1687 450, 1618 573.5 Q 1549 697, 1521.5 738 Q 1494 779, 1418 888 L 1308 1045 L 1194 1207 Q 944 1461, 806 1578 Q 668 1695, 510 1766.5 Q 352 1838, 155 1872 L 103 1881 Q 82 1885, 77 1872.5 Q 72 1860, 109 1841 L 176 1808 Q 364 1715, 601.5 1511.5 Q 839 1308, 1028 1051 L 1140 919 Z" fill="black" stroke-width="1"></path></g><g x="0" y="0"><path d="M 1028 1051 Q 898 935, 791.5 842 Q 685 749, 334 462 L 274 413 Q 267 408, 263.5 400 Q 260 392, 265.5 384.5 Q 271 377, 299 388 L 379 422 Q 473 462, 690 604 Q 907 746, 1140 919 L 1308 1045 Q 1377 1102, 1532 1232.5 Q 1687 1363, 1757.5 1425.5 Q 1828 1488, 1876.5 1545.5 Q 1925 1603, 1946.5 1654 Q 1968 1705, 1968.5 1751 Q 1969 1797, 1960 1842 Q 1948 1897, 1916 1930 Q 1884 1963, 1827 1923 Q 1792 1900, 1756 1855 L 1683 1767 Q 1352 1370, 1325 1342 L 1194 1207 L 1028 1051 Z" fill="black" stroke-width="1"></path></g></g></svg>