<svg xmlns="http://www.w3.org/2000/svg" width="2048" height="2048" viewBox="0 0 2048 2048" version="1.1"><g x="0" y="0"><g x="0" y="0"><path d="M 376 971 L 560 953 Q 906 920, 1219 891 L 1497 866 Q 1514 865, 1614.5 852.5 Q 1715 840, 1758 840 Q 1820 842, 1860 859.5 Q 1900 877, 1933 910 Q 1966 943, 1983 979.5 Q 2000 1016, 1996 1045.5 Q 1992 1075, 1963.5 1099 Q 1935 1123, 1867 1116 L 1699 1101 Q 1561 1089, 1499 1087.5 Q 1437 1086, 1232.5 1093.5 Q 1028 1101, 773 1124 Q 518 1147, 411 1164 Q 304 1181, 276 1189 L 237 1202 Q 213 1209, 192 1208 Q 165 1208, 140 1194.5 Q 115 1181, 91.5 1142.5 Q 68 1104, 59.5 1080.5 Q 51 1057, 51 1030.5 Q 51 1004, 67 990 Q 83 976, 125 976 L 211 979 Q 278 981, 376 971 Z" fill="black" stroke-width="1"></path></g></g></svg>