<svg xmlns="http://www.w3.org/2000/svg" width="2048" height="2048" viewBox="0 0 2048 2048" version="1.1"><g x="0" y="0"><g x="0" y="0"><path d="M 1675 1644 L 1240 1703 L 840 1768 Q 637 1801, 586.5 1812.5 Q 536 1824, 429.5 1858.5 Q 323 1893, 282 1892 Q 241 1892, 211.5 1875 Q 182 1858, 134.5 1807.5 Q 87 1757, 87 1707 Q 87 1684, 98.5 1667.5 Q 110 1651, 170.5 1586.5 Q 231 1522, 370.5 1299.5 Q 510 1077, 593 929 Q 676 781, 749 623 Q 822 465, 855.5 382 Q 889 299, 906.5 236.5 Q 924 174, 931.5 154.5 Q 939 135, 956 119.5 Q 973 104, 1016 105 Q 1048 106, 1080 120.5 Q 1112 135, 1160 181 Q 1208 227, 1222 255.5 Q 1236 284, 1236.5 305 Q 1237 326, 1220 358 Q 1210 375, 1189 406.5 Q 1168 438, 1124.5 500.5 Q 1081 563, 1066.5 585 Q 1052 607, 931 796.5 Q 810 986, 802 1000 L 561 1400 Q 518 1471, 499 1508 Q 480 1545, 468 1573.5 Q 456 1602, 463.5 1613.5 Q 471 1625, 486.5 1626.5 Q 502 1628, 558 1622 L 1640 1511 C 1831.6666666666667 1475.3333333333333, 1808.3333333333333 1599.6666666666667, 1675 1644 Z" fill="black" stroke-width="1"></path></g></g></svg>