<svg xmlns="http://www.w3.org/2000/svg" width="2048" height="2048" viewBox="0 0 2048 2048" version="1.1"><g x="0" y="0"><g x="0" y="0"><path d="M 624 1654 L 796 1699 Q 862 1717, 901 1716 Q 996 1715, 1061 1672 Q 1126 1629, 1152 1606 Q 1178 1583, 1236 1506.5 Q 1294 1430, 1351 1308 Q 1408 1186, 1438 1085 L 1464 993 Q 1481 934, 1485 913 L 1491 878 L 1495 856 Q 1494 846, 1486 841 Q 1478 836, 1439 843 L 1113 905 Q 1013 924, 984.5 934.5 Q 956 945, 947 944 Q 931 944, 892 921 Q 853 898, 850.5 865.5 Q 848 833, 854 820 Q 859 808, 866 801.5 Q 873 795, 895 777 Q 917 759, 929.5 743 Q 942 727, 967 692 L 1019 621 L 1115 482 Q 1168 405, 1181 377 L 1196 338 Q 1203 319, 1199 298.5 Q 1195 278, 1137 282 Q 1086 286, 1080 287 Q 1074 288, 901.5 320 Q 729 352, 600 394 L 486 431 Q 438 447, 426 446 Q 390 445, 355 404.5 Q 320 364, 312.5 339.5 Q 305 315, 305 306 Q 305 276, 325.5 268.5 Q 346 261, 375 258 L 489 246 Q 562 239, 819 205 Q 1076 171, 1157 147.5 Q 1238 124, 1262 123 Q 1316 122, 1390.5 160.5 Q 1465 199, 1488 230 Q 1511 261, 1489 308 Q 1475 337, 1445 369 Q 1415 401, 1360.5 454.5 Q 1306 508, 1238.5 589.5 Q 1171 671, 1152 702 L 1128 741 Q 1114 761, 1118 769 Q 1122 777, 1146 773 L 1496 723 Q 1562 714, 1599 721.5 Q 1636 729, 1674.5 764 Q 1713 799, 1729 828.5 Q 1745 858, 1743 878 Q 1741 893, 1729 915 L 1702 959 Q 1683 990, 1669 1026.5 Q 1655 1063, 1616.5 1172.5 Q 1578 1282, 1551 1341 Q 1524 1400, 1478.5 1489 Q 1433 1578, 1361 1676.5 Q 1289 1775, 1156.5 1850.5 Q 1024 1926, 935 1926 Q 897 1927, 878.5 1916.5 Q 860 1906, 851.5 1895.5 Q 843 1885, 799.5 1823 Q 756 1761, 638 1683 L 615 1668 Q 606 1663, 608.5 1657 Q 611 1651, 624 1654 Z" fill="black" stroke-width="1"></path></g></g></svg>