<svg xmlns="http://www.w3.org/2000/svg" width="2048" height="2048" viewBox="0 0 2048 2048" version="1.1"><g x="0" y="0"><g x="0" y="0"><path d="M 748 350 L 560 376 Q 473 388, 412.5 404.5 Q 352 421, 309 436.5 Q 266 452, 257 451 Q 221 451, 187 406.5 Q 153 362, 150.5 352.5 Q 148 343, 148 334 Q 149 306, 173 290 Q 197 274, 265 267 L 454 250 Q 479 248, 710.5 222 Q 942 196, 1295 183 L 1553 174 Q 1613 172, 1643 165 L 1694 151 Q 1722 144, 1745 144 Q 1788 145, 1843 180.5 Q 1898 216, 1899 252.5 Q 1900 289, 1891 306 Q 1870 344, 1829 340 L 1617 320 Q 1537 313, 1463 311 Q 1430 311, 1384.5 312.5 Q 1339 314, 1187.5 317.5 Q 1036 321, 860 333 L 748 350 Z" fill="black" stroke-width="1"></path></g></g></svg>