<svg xmlns="http://www.w3.org/2000/svg" width="2048" height="2048" viewBox="0 0 2048 2048" version="1.1"><g x="0" y="0"><g x="0" y="0"><path d="M 748 350 L 560 376 Q 473 388, 412.5 404.5 Q 352 421, 309 436.5 Q 266 452, 257 451 Q 221 451, 187 406.5 Q 153 362, 150.5 352.5 Q 148 343, 148 334 Q 149 306, 173 290 Q 197 274, 265 267 L 454 250 Q 479 248, 710.5 222 Q 942 196, 1295 183 L 1553 174 Q 1613 172, 1643 165 L 1694 151 Q 1722 144, 1745 144 Q 1788 145, 1843 180.5 Q 1898 216, 1899 252.5 Q 1900 289, 1891 306 Q 1870 344, 1829 340 L 1617 320 Q 1537 313, 1463 311 Q 1430 311, 1384.5 312.5 Q 1339 314, 1187.5 317.5 Q 1036 321, 860 333 L 748 350 Z" fill="black" stroke-width="1"></path></g><g x="0" y="0"><path d="M 860 333 Q 907 389, 924 419 Q 941 449, 942 465 Q 943 481, 939 491 Q 935 499, 929 506 L 911 523 Q 874 558, 825.5 648 Q 777 738, 771 751 L 753 787 Q 743 807, 743.5 817 Q 744 827, 751 832.5 Q 758 838, 804 831 L 974 807 Q 1029 800, 1129 787.5 Q 1229 775, 1275.5 763.5 Q 1322 752, 1343 751 Q 1382 751, 1451 777 Q 1520 803, 1549.5 837.5 Q 1579 872, 1590.5 908.5 Q 1602 945, 1598 975 Q 1596 986, 1593.5 994 Q 1591 1002, 1583 1023 Q 1575 1044, 1569.5 1061.5 Q 1564 1079, 1542 1170 L 1514 1276 Q 1498 1334, 1488.5 1365.5 Q 1479 1397, 1424 1530.5 Q 1369 1664, 1251.5 1785 Q 1134 1906, 1054 1905 Q 1032 1905, 1016.5 1897 Q 1001 1889, 984 1865 L 956 1826 Q 922 1783, 856 1726 L 815 1691 Q 803 1681, 799.5 1669 Q 796 1657, 818 1663 L 865 1678 Q 879 1683, 936.5 1703 Q 994 1723, 1020 1721 Q 1080 1717, 1160 1614.5 Q 1240 1512, 1279 1427.5 Q 1318 1343, 1339.5 1271.5 Q 1361 1200, 1371.5 1152 Q 1382 1104, 1387.5 1051.5 Q 1393 999, 1393.5 975.5 Q 1394 952, 1391 939 Q 1384 919, 1364.5 906 Q 1345 893, 1284 895 Q 1205 899, 1167 903 L 1038 918 Q 901 934, 814 951.5 Q 727 969, 674 982.5 Q 621 996, 606 996 Q 556 997, 528 951.5 Q 500 906, 501 862 Q 501 844, 506 832.5 Q 511 821, 523 810 L 557 783 Q 576 767, 613.5 719 Q 651 671, 692.5 600 Q 734 529, 742.5 498 Q 751 467, 754 448 Q 757 429, 757.5 417 Q 758 405, 757 392 Q 755 373, 748 350 L 860 333 Z" fill="black" stroke-width="1"></path></g></g></svg>