<svg xmlns="http://www.w3.org/2000/svg" width="2048" height="2048" viewBox="0 0 2048 2048" version="1.1"><g x="0" y="0"><g x="0" y="0"><path d="M 388 1368 L 301 1232 Q 243 1142, 232.5 1113 Q 222 1084, 222 1059.5 Q 222 1035, 230 1007 Q 236 986, 253.5 953.5 Q 271 921, 299 877 L 382 749 Q 407 709, 447 636 L 506 529 Q 523 498, 569 396 Q 615 294, 628.5 254 Q 642 214, 649.5 182 Q 657 150, 660 133 L 666 97 Q 670 76, 680 66 Q 690 56, 711 56 Q 742 57, 794.5 90.5 Q 847 124, 878 175.5 Q 909 227, 909 267 Q 908 298, 895.5 312.5 Q 883 327, 849.5 356.5 Q 816 386, 791 420 Q 766 454, 724.5 518 Q 683 582, 643 638 L 514 819 Q 467 885, 431.5 933.5 Q 396 982, 383 1011 Q 370 1040, 368.5 1063.5 Q 367 1087, 379 1110 Q 386 1125, 413 1156 L 454 1204 L 693 1463 Q 846 1630, 869.5 1662 Q 893 1694, 900.5 1732 Q 908 1770, 908.5 1809.5 Q 909 1849, 902 1884 Q 895 1915, 876 1954 Q 857 1993, 803 1994 Q 733 1996, 705.5 1952.5 Q 678 1909, 669 1892.5 Q 660 1876, 628.5 1810.5 Q 597 1745, 511.5 1587 Q 426 1429, 388 1368 Z" fill="black" stroke-width="1"></path></g></g></svg>