<svg xmlns="http://www.w3.org/2000/svg" width="2048" height="2048" viewBox="0 0 2048 2048" version="1.1"><g x="0" y="0"><g x="0" y="0"><path d="M 388 1368 L 301 1232 Q 243 1142, 232.5 1113 Q 222 1084, 222 1059.5 Q 222 1035, 230 1007 Q 236 986, 253.5 953.5 Q 271 921, 299 877 L 382 749 Q 407 709, 447 636 L 506 529 Q 523 498, 569 396 Q 615 294, 628.5 254 Q 642 214, 649.5 182 Q 657 150, 660 133 L 666 97 Q 670 76, 680 66 Q 690 56, 711 56 Q 742 57, 794.5 90.5 Q 847 124, 878 175.5 Q 909 227, 909 267 Q 908 298, 895.5 312.5 Q 883 327, 849.5 356.5 Q 816 386, 791 420 Q 766 454, 724.5 518 Q 683 582, 643 638 L 514 819 Q 467 885, 431.5 933.5 Q 396 982, 383 1011 Q 370 1040, 368.5 1063.5 Q 367 1087, 379 1110 Q 386 1125, 413 1156 L 454 1204 L 693 1463 Q 846 1630, 869.5 1662 Q 893 1694, 900.5 1732 Q 908 1770, 908.5 1809.5 Q 909 1849, 902 1884 Q 895 1915, 876 1954 Q 857 1993, 803 1994 Q 733 1996, 705.5 1952.5 Q 678 1909, 669 1892.5 Q 660 1876, 628.5 1810.5 Q 597 1745, 511.5 1587 Q 426 1429, 388 1368 Z" fill="black" stroke-width="1"></path></g><g x="0" y="0"><path d="M 1262 1314 L 1180 1190 Q 1141 1132, 1130.5 1102.5 Q 1120 1073, 1119.5 1052.5 Q 1119 1032, 1128 1005 Q 1142 959, 1169.5 915.5 Q 1197 872, 1251.5 792.5 Q 1306 713, 1347.5 643.5 Q 1389 574, 1405 545 Q 1421 516, 1469.5 414 Q 1518 312, 1533 263 Q 1548 214, 1554 188.5 Q 1560 163, 1563 142.5 Q 1566 122, 1571.5 98 Q 1577 74, 1611 75 Q 1646 77, 1695.5 109 Q 1745 141, 1785 203 Q 1825 265, 1825.5 295.5 Q 1826 326, 1821 335 Q 1816 344, 1804.5 351.5 Q 1793 359, 1761.5 379 Q 1730 399, 1702.5 433 Q 1675 467, 1578 601 L 1404 842 L 1352 911 Q 1299 982, 1284.5 1012.5 Q 1270 1043, 1271 1066 Q 1271 1083, 1280 1103.5 Q 1289 1124, 1331 1169 L 1538 1395 Q 1538 1396, 1602 1462 L 1659 1522 Q 1731 1597, 1756.5 1629 Q 1782 1661, 1796.5 1697 Q 1811 1733, 1811.5 1784 Q 1812 1835, 1805 1868 Q 1797 1903, 1776.5 1938.5 Q 1756 1974, 1710 1975 Q 1659 1977, 1628 1951.5 Q 1597 1926, 1566 1864 L 1489 1711 Q 1458 1650, 1372 1500.5 Q 1286 1351, 1262 1314 Z" fill="black" stroke-width="1"></path></g></g></svg>