<svg xmlns="http://www.w3.org/2000/svg" width="2048" height="2048" viewBox="0 0 2048 2048" version="1.1"><g x="0" y="0"><g x="0" y="0"><path d="M 506 466 Q 495 447, 493 441 Q 491 435, 490.5 422 Q 490 409, 494 386 Q 496 369, 505 351 Q 514 333, 555 334 L 734 341 Q 816 345, 1110 317 L 1660 266 Q 1744 259, 1794 258.5 Q 1844 258, 1866 293.5 Q 1888 329, 1888.5 356.5 Q 1889 384, 1881 400 Q 1873 416, 1861.5 422.5 Q 1850 429, 1824 429 L 1517 433 Q 1219 437, 1043 454 Q 867 471, 698 494 Q 552 530, 506 466 Z" fill="black" stroke-width="1"></path></g></g></svg>