<svg xmlns="http://www.w3.org/2000/svg" width="2048" height="2048" viewBox="0 0 2048 2048" version="1.1"><g x="0" y="0"><g x="0" y="0"><path d="M 872 888 L 647 922 L 531 947 Q 434 968, 410 975 Q 386 982, 373 982 Q 320 983, 289.5 931.5 Q 259 880, 261 854 Q 262 821, 283 814 Q 304 807, 329 808 L 395 811 Q 418 811, 488 803 L 891 757 L 1064 733 L 1270 714 Q 1340 708, 1500 684.5 Q 1660 661, 1678 660 Q 1765 660, 1790.5 701 Q 1816 742, 1816 762 Q 1815 779, 1798 812.5 Q 1781 846, 1732 842 L 1636 836 Q 1462 826, 1195 851 L 1089 866 L 1039 876 L 872 888 Z" fill="black" stroke-width="1"></path></g></g></svg>