<svg xmlns="http://www.w3.org/2000/svg" width="2048" height="2048" viewBox="0 0 2048 2048" version="1.1"><g x="0" y="0"><g x="0" y="0"><path d="M 872 888 L 647 922 L 531 947 Q 434 968, 410 975 Q 386 982, 373 982 Q 320 983, 289.5 931.5 Q 259 880, 261 854 Q 262 821, 283 814 Q 304 807, 329 808 L 395 811 Q 418 811, 488 803 L 891 757 L 1064 733 L 1270 714 Q 1340 708, 1500 684.5 Q 1660 661, 1678 660 Q 1765 660, 1790.5 701 Q 1816 742, 1816 762 Q 1815 779, 1798 812.5 Q 1781 846, 1732 842 L 1636 836 Q 1462 826, 1195 851 L 1089 866 L 1039 876 L 872 888 Z" fill="black" stroke-width="1"></path></g><g x="0" y="0"><path d="M 891 757 Q 905 709, 910.5 685 Q 916 661, 924.5 604.5 Q 933 548, 936.5 509.5 Q 940 471, 944 398 Q 948 325, 948 291 Q 947 268, 943.5 224.5 Q 940 181, 935.5 157 Q 931 133, 930.5 120 Q 930 107, 938 93 Q 950 73, 984 72 Q 1018 72, 1077 91 Q 1136 110, 1149 133 Q 1162 156, 1163 172 Q 1164 188, 1159 216 Q 1137 319, 1129.5 360 Q 1122 401, 1111 464 Q 1100 527, 1090 587 L 1064 733 L 1039 876 Q 988 1026, 956 1097.5 Q 924 1169, 864.5 1276.5 Q 805 1384, 760.5 1447.5 Q 716 1511, 645.5 1593 Q 575 1675, 480.5 1763.5 Q 386 1852, 213 1923 L 150 1949 Q 129 1958, 120.5 1954 Q 112 1950, 110.5 1942 Q 109 1934, 125 1920 L 170 1884 Q 343 1746, 476.5 1571.5 Q 610 1397, 649.5 1333.5 Q 689 1270, 747 1163 Q 805 1056, 815 1030 L 872 888 L 891 757 Z" fill="black" stroke-width="1"></path></g><g x="0" y="0"><path d="M 1195 851 Q 1255 924, 1262 949.5 Q 1269 975, 1269 995 Q 1268 1014, 1261 1057 Q 1254 1100, 1247 1160 L 1235 1257 Q 1225 1336, 1221 1410 L 1204 1673 Q 1201 1714, 1208 1745 Q 1215 1776, 1242.5 1798 Q 1270 1820, 1394 1818 L 1487 1817 Q 1527 1817, 1595 1810 Q 1663 1803, 1729.5 1787.5 Q 1796 1772, 1820 1770 Q 1844 1768, 1859.5 1773.5 Q 1875 1779, 1904 1805.5 Q 1933 1832, 1935.5 1863.5 Q 1938 1895, 1909 1920 Q 1867 1956, 1662 1966 Q 1457 1976, 1370 1976 Q 1239 1977, 1171 1957.5 Q 1103 1938, 1065 1875 Q 1027 1812, 1033 1728 L 1089 866 L 1195 851 Z" fill="black" stroke-width="1"></path></g></g></svg>