<svg xmlns="http://www.w3.org/2000/svg" width="2048" height="2048" viewBox="0 0 2048 2048" version="1.1"><g x="0" y="0"><g x="0" y="0"><path d="M 938 1004.5 Q 924 978, 888.5 940 Q 853 902, 776.5 820 Q 700 738, 653 689 L 480 513 L 373 398 Q 302 327, 282 303 Q 262 279, 261 253.5 Q 260 228, 273 205 Q 288 178, 323 159.5 Q 358 141, 392 141 Q 443 142, 482 181 Q 521 220, 594 317 L 741 515 Q 859 675, 1045 866 Q 1125.5 1065.25, 938 1004.5 Z" fill="black" stroke-width="1"></path></g><g x="0" y="0"><path d="M 1045 866 Q 1154 742, 1232 635 L 1354 467 Q 1377 436, 1414 375 Q 1451 314, 1471.5 275 Q 1492 236, 1509 185 Q 1526 134, 1546.5 101.5 Q 1567 69, 1626 70 Q 1658 71, 1697.5 91.5 Q 1737 112, 1762.5 156.5 Q 1788 201, 1787 229 Q 1785 253, 1774 270.5 Q 1763 288, 1739.5 311 Q 1716 334, 1657 396 Q 1598 458, 1576 484 L 1425 666 L 1309 802 Q 1273 847, 1232 910 Q 1191 973, 1175.5 1015 Q 907.25 1097.5, 1045 866 Z" fill="black" stroke-width="1"></path></g></g></svg>