<?xml version="1.0" encoding="UTF-8" standalone="no"?>
<!DOCTYPE svg PUBLIC "-//W3C//DTD SVG 1.1//EN" "http://www.w3.org/Graphics/SVG/1.1/DTD/svg11.dtd">
<svg width="100%" height="100%" viewBox="0 0 2050 2050" version="1.1" xmlns="http://www.w3.org/2000/svg" xmlns:xlink="http://www.w3.org/1999/xlink" xml:space="preserve" style="fill-rule:evenodd;clip-rule:evenodd;stroke-linejoin:round;stroke-miterlimit:1.41421;">
    <g id="outline" transform="matrix(0.497573,0,0,0.497573,512.5,512.5)">
        <path d="M1918.75,157.227C1946.52,187.517 1938.56,233.158 1926.7,251.897C1915.29,269.917 1365.54,920.48 1273.25,1030C1180.75,1139.77 733.406,1680.95 672.584,1757.35C610.727,1835.05 538.845,1908.18 514.863,1921.58C483.319,1939.22 434.793,1940.39 402.17,1927.78C364.77,1913.32 291.608,1843.24 269.592,1821.58C247.577,1799.91 140.608,1685.49 123.017,1662.27C109.274,1644.12 109.195,1607.05 124.73,1587.97C141.179,1567.78 426.859,1374.92 488.667,1323.27C550.476,1271.62 971.199,938.343 1081.69,843.572C1194.34,746.95 1599.09,369.489 1654.31,313.981C1710.45,257.54 1794.35,176.504 1818.39,159.287C1847.39,138.526 1892.99,129.129 1918.75,157.227Z"/>
    </g>
    <g id="track0">
        <path d="M693.664,1361.85L1443.74,619.553" style="fill:none;"/>
    </g>
</svg>
