<svg xmlns="http://www.w3.org/2000/svg" width="2048" height="2048" viewBox="0 0 2048 2048" version="1.1"><g x="0" y="0"><g x="0" y="0"><path d="M 796 1220 L 386 999 L 334 976 Q 296 957, 285.5 926.5 Q 275 896, 276 881 Q 277 857, 295 835 Q 313 813, 379.5 760 Q 446 707, 528 624 Q 610 541, 700 441.5 Q 790 342, 858 247.5 Q 926 153, 941.5 128.5 Q 957 104, 978.5 81.5 Q 1000 59, 1048 86 Q 1092 113, 1115.5 160 Q 1139 207, 1139.5 231 Q 1140 255, 1131 272 Q 1121 291, 1080 324 L 1029 367 L 917 460 L 591 770 Q 563 796, 546 818.5 Q 529 841, 528.5 857.5 Q 528 874, 548 892 Q 567 911, 657 955 L 923 1087 C 1080.6666666666665 1166.3333333333333, 868.3333333333334 1255.6666666666667, 796 1220 Z" fill="black" stroke-width="1"></path></g></g></svg>