<svg xmlns="http://www.w3.org/2000/svg" width="2048" height="2048" viewBox="0 0 2048 2048" version="1.1"><g x="0" y="0"><g x="0" y="0"><path d="M 796 1220 L 386 999 L 334 976 Q 296 957, 285.5 926.5 Q 275 896, 276 881 Q 277 857, 295 835 Q 313 813, 379.5 760 Q 446 707, 528 624 Q 610 541, 700 441.5 Q 790 342, 858 247.5 Q 926 153, 941.5 128.5 Q 957 104, 978.5 81.5 Q 1000 59, 1048 86 Q 1092 113, 1115.5 160 Q 1139 207, 1139.5 231 Q 1140 255, 1131 272 Q 1121 291, 1080 324 L 1029 367 L 917 460 L 591 770 Q 563 796, 546 818.5 Q 529 841, 528.5 857.5 Q 528 874, 548 892 Q 567 911, 657 955 L 923 1087 C 1080.6666666666665 1166.3333333333333, 868.3333333333334 1255.6666666666667, 796 1220 Z" fill="black" stroke-width="1"></path></g><g x="0" y="0"><path d="M 923 1087 L 1109 907 Q 1148 870, 1283 715.5 Q 1418 561, 1439.5 525 Q 1461 489, 1470.5 478.5 Q 1480 468, 1495 464 Q 1530 457, 1585.5 507 Q 1641 557, 1643.5 606 Q 1646 655, 1636 678 Q 1622 707, 1581 740 L 1503 796 Q 1470 820, 1419.5 863.5 Q 1369 907, 1264.5 1004.5 Q 1160 1102, 974 1272.5 Q 788 1443, 690 1548 L 605 1639 Q 566 1680, 571.5 1693.5 Q 577 1707, 625 1701 L 790 1681 L 1493 1593 Q 1724.5 1560.5, 1536 1728 Q 1194 1780, 878 1843 L 739 1871 Q 655 1888, 586 1904 Q 517 1920, 463 1942 Q 409 1964, 392 1964 Q 377 1965, 363 1958 Q 349 1951, 307.5 1901 Q 266 1851, 256 1830.5 Q 246 1810, 244.5 1784.5 Q 243 1759, 245 1753.5 Q 247 1748, 263 1734 L 461 1554 L 796 1220 L 923 1087 Z" fill="black" stroke-width="1"></path></g></g></svg>