<svg xmlns="http://www.w3.org/2000/svg" width="2048" height="2048" viewBox="0 0 2048 2048" version="1.1"><g x="0" y="0"><g x="0" y="0"><path d="M 211 500 Q 202 486, 183.5 467.5 Q 165 449, 162 440 Q 159 431, 159 417 Q 160 353, 208 354 L 289 356 Q 375 359, 475.5 358.5 Q 576 358, 993 321 L 1234 300 Q 1363 289, 1425.5 279 Q 1488 269, 1558 249.5 Q 1628 230, 1652 228 Q 1760 222, 1788.5 281.5 Q 1817 341, 1816 365 Q 1814 389, 1798.5 407.5 Q 1783 426, 1710.5 440 Q 1638 454, 1319 473 L 1162 483 Q 726 510, 433 518 L 211 500 Z" fill="black" stroke-width="1"></path></g></g></svg>