<svg xmlns="http://www.w3.org/2000/svg" width="2048" height="2048" viewBox="0 0 2048 2048" version="1.1"><g x="0" y="0"><g x="0" y="0"><path d="M 211 500 Q 202 486, 183.5 467.5 Q 165 449, 162 440 Q 159 431, 159 417 Q 160 353, 208 354 L 289 356 Q 375 359, 475.5 358.5 Q 576 358, 993 321 L 1234 300 Q 1363 289, 1425.5 279 Q 1488 269, 1558 249.5 Q 1628 230, 1652 228 Q 1760 222, 1788.5 281.5 Q 1817 341, 1816 365 Q 1814 389, 1798.5 407.5 Q 1783 426, 1710.5 440 Q 1638 454, 1319 473 L 1162 483 Q 726 510, 433 518 L 211 500 Z" fill="black" stroke-width="1"></path></g><g x="0" y="0"><path d="M 433 518 L 437 1243 Q 437 1361, 442 1438.5 Q 447 1516, 464.5 1555.5 Q 482 1595, 515.5 1614 Q 549 1633, 603.5 1640.5 Q 658 1648, 826 1643 L 1449 1627 Q 1552 1625, 1635.5 1616 Q 1719 1607, 1738 1606 Q 1790 1606, 1815.5 1621 Q 1841 1636, 1865.5 1672.5 Q 1890 1709, 1888 1747 Q 1886 1768, 1876.5 1780 Q 1867 1792, 1841.5 1801 Q 1816 1810, 1713 1808 L 1544 1805 Q 1281 1801, 1249 1800 Q 1184 1800, 998 1804 L 839 1808 Q 819 1809, 695 1815 Q 571 1821, 554 1821 Q 461 1822, 402.5 1790 Q 344 1758, 315 1661.5 Q 286 1565, 280.5 1527.5 Q 275 1490, 272 1448.5 Q 269 1407, 266.5 1325 Q 264 1243, 264 1241 L 238 740 Q 235 696, 231.5 643 Q 228 590, 224 552 Q 220 514, 211 500 L 433 518 Z" fill="black" stroke-width="1"></path></g></g></svg>