<svg xmlns="http://www.w3.org/2000/svg" width="2048" height="2048" viewBox="0 0 2048 2048" version="1.1"><g x="0" y="0"><g x="0" y="0"><path d="M 1158 498 L 1597 459 L 1770 445 Q 1840 440, 1861 453 Q 1882 466, 1894 486 Q 1906 506, 1906.5 537 Q 1907 568, 1888.5 581 Q 1870 594, 1834 596 L 1597 612 Q 1585 613, 1330 634 L 1164 648 L 993 666 L 673 703 Q 565 716, 429 744.5 Q 293 773, 278 772 Q 223 772, 181.5 728.5 Q 140 685, 140 661 Q 140 637, 146 627 Q 161 603, 257 593 L 430 575 L 989 510 L 1158 498 Z" fill="black" stroke-width="1"></path></g></g></svg>