<svg xmlns="http://www.w3.org/2000/svg" width="2048" height="2048" viewBox="0 0 2048 2048" version="1.1"><g x="0" y="0"><g x="0" y="0"><path d="M 1158 498 L 1597 459 L 1770 445 Q 1840 440, 1861 453 Q 1882 466, 1894 486 Q 1906 506, 1906.5 537 Q 1907 568, 1888.5 581 Q 1870 594, 1834 596 L 1597 612 Q 1585 613, 1330 634 L 1164 648 L 993 666 L 673 703 Q 565 716, 429 744.5 Q 293 773, 278 772 Q 223 772, 181.5 728.5 Q 140 685, 140 661 Q 140 637, 146 627 Q 161 603, 257 593 L 430 575 L 989 510 L 1158 498 Z" fill="black" stroke-width="1"></path></g><g x="0" y="0"><path d="M 989 510 L 989 379 Q 989 361, 985.5 303 Q 982 245, 979.5 221 Q 977 197, 969 169 Q 961 141, 963 130 Q 967 85, 1041 86 Q 1092 87, 1120 104 Q 1148 121, 1158.5 138 Q 1169 155, 1169.5 178 Q 1170 201, 1164.5 250 Q 1159 299, 1159 340 L 1158 498 L 1164 648 L 1153 1029 Q 1152 1055, 1137.5 1081 Q 1123 1107, 997 1115 L 907 1121 Q 850 1125, 767 1144 Q 684 1163, 631 1258.5 Q 578 1354, 579 1429 Q 579 1508, 625 1589 Q 671 1670, 782 1732.5 Q 893 1795, 1073 1794 Q 1148 1794, 1233.5 1781 Q 1319 1768, 1401 1735.5 Q 1483 1703, 1545 1660 L 1640 1590 Q 1714 1542, 1749.5 1565 Q 1785 1588, 1788.5 1618.5 Q 1792 1649, 1776 1685 Q 1761 1717, 1725 1763.5 Q 1689 1810, 1506 1885.5 Q 1323 1961, 1077 1963 Q 700 1967, 539 1788.5 Q 378 1610, 379 1430 Q 379 1337, 412 1262.5 Q 445 1188, 522 1117 Q 599 1046, 682 1027 Q 765 1008, 830 999 L 923 987 Q 951 984, 965 964.5 Q 979 945, 984 857 L 993 666 L 989 510 Z" fill="black" stroke-width="1"></path></g></g></svg>