<svg xmlns="http://www.w3.org/2000/svg" width="2048" height="2048" viewBox="0 0 2048 2048" version="1.1"><g x="0" y="0"><g x="0" y="0"><path d="M 109 1887 L 183 1799 Q 224 1750, 282 1663 Q 340 1576, 380 1496.5 Q 420 1417, 455 1310.5 Q 490 1204, 505 1120.5 Q 520 1037, 527 974 Q 534 911, 539.5 821.5 Q 545 732, 549 632 Q 553 532, 552 457 Q 550 393, 545.5 369.5 Q 541 346, 533.5 313.5 Q 526 281, 514 252.5 Q 502 224, 501.5 201.5 Q 501 179, 549 179 Q 586 180, 671 198 Q 756 216, 775 250 Q 794 284, 795 305 Q 796 326, 787 425 L 774 565 Q 770 599, 758.5 693 Q 747 787, 733 904 Q 719 1021, 706.5 1091 Q 694 1161, 670.5 1251.5 Q 647 1342, 622 1401 Q 597 1460, 551.5 1539.5 Q 506 1619, 429 1703.5 Q 352 1788, 171 1893 L 126 1919 Q 110 1928, 102 1924 Q 94 1920, 94.5 1912 Q 95 1904, 109 1887 Z" fill="black" stroke-width="1"></path></g></g></svg>