<svg xmlns="http://www.w3.org/2000/svg" width="2048" height="2048" viewBox="0 0 2048 2048" version="1.1"><g x="0" y="0"><g x="0" y="0"><path d="M 109 1887 L 183 1799 Q 224 1750, 282 1663 Q 340 1576, 380 1496.5 Q 420 1417, 455 1310.5 Q 490 1204, 505 1120.5 Q 520 1037, 527 974 Q 534 911, 539.5 821.5 Q 545 732, 549 632 Q 553 532, 552 457 Q 550 393, 545.5 369.5 Q 541 346, 533.5 313.5 Q 526 281, 514 252.5 Q 502 224, 501.5 201.5 Q 501 179, 549 179 Q 586 180, 671 198 Q 756 216, 775 250 Q 794 284, 795 305 Q 796 326, 787 425 L 774 565 Q 770 599, 758.5 693 Q 747 787, 733 904 Q 719 1021, 706.5 1091 Q 694 1161, 670.5 1251.5 Q 647 1342, 622 1401 Q 597 1460, 551.5 1539.5 Q 506 1619, 429 1703.5 Q 352 1788, 171 1893 L 126 1919 Q 110 1928, 102 1924 Q 94 1920, 94.5 1912 Q 95 1904, 109 1887 Z" fill="black" stroke-width="1"></path></g><g x="0" y="0"><path d="M 1327 619 L 1290 1491 Q 1287 1544, 1294.5 1587.5 Q 1302 1631, 1317.5 1653.5 Q 1333 1676, 1370.5 1687.5 Q 1408 1699, 1486 1694 L 1594 1688 Q 1620 1687, 1687 1676.5 Q 1754 1666, 1788 1658.5 Q 1822 1651, 1838 1651 Q 1895 1655, 1925.5 1706.5 Q 1956 1758, 1952 1789 Q 1947 1821, 1908.5 1854 Q 1870 1887, 1625 1897 L 1458 1904 Q 1397 1907, 1323 1896.5 Q 1249 1886, 1206.5 1861.5 Q 1164 1837, 1140 1794 Q 1116 1751, 1105.5 1693 Q 1095 1635, 1097 1583 L 1123 443 Q 1123 400, 1120 335.5 Q 1117 271, 1116.5 251 Q 1116 231, 1115 222 L 1106 167 Q 1109 126, 1151 125 Q 1189 125, 1253.5 159.5 Q 1318 194, 1334.5 225 Q 1351 256, 1351.5 280 Q 1352 304, 1347 342 Q 1343 367, 1336 486 L 1327 619 Z" fill="black" stroke-width="1"></path></g></g></svg>