<svg xmlns="http://www.w3.org/2000/svg" width="2048" height="2048" viewBox="0 0 2048 2048" version="1.1"><g x="0" y="0"><g x="0" y="0"><path d="M 930 278 L 662 308 Q 453 332, 388 348 L 330 364 Q 295 374, 275 373 Q 248 373, 230 363 Q 212 353, 182.5 325.5 Q 153 298, 145.5 283 Q 138 268, 138 254.5 Q 138 241, 149 221 Q 169 187, 211 186 Q 220 186, 253 188 Q 286 190, 311 189 L 458 177 L 1455 109 Q 1503 106, 1569.5 99 Q 1636 92, 1680 82.5 Q 1724 73, 1734 72 Q 1795 66, 1838.5 91 Q 1882 116, 1894.5 137 Q 1907 158, 1908.5 189 Q 1910 220, 1896 238 Q 1885 252, 1869 257 Q 1853 262, 1819 259 L 1634 248 Q 1593 246, 1414 254 L 1146 268 L 930 278 Z" fill="black" stroke-width="1"></path></g></g></svg>