<svg xmlns="http://www.w3.org/2000/svg" width="2048" height="2048" viewBox="0 0 2048 2048" version="1.1"><g x="0" y="0"><g x="0" y="0"><path d="M 930 278 L 662 308 Q 453 332, 388 348 L 330 364 Q 295 374, 275 373 Q 248 373, 230 363 Q 212 353, 182.5 325.5 Q 153 298, 145.5 283 Q 138 268, 138 254.5 Q 138 241, 149 221 Q 169 187, 211 186 Q 220 186, 253 188 Q 286 190, 311 189 L 458 177 L 1455 109 Q 1503 106, 1569.5 99 Q 1636 92, 1680 82.5 Q 1724 73, 1734 72 Q 1795 66, 1838.5 91 Q 1882 116, 1894.5 137 Q 1907 158, 1908.5 189 Q 1910 220, 1896 238 Q 1885 252, 1869 257 Q 1853 262, 1819 259 L 1634 248 Q 1593 246, 1414 254 L 1146 268 L 930 278 Z" fill="black" stroke-width="1"></path></g><g x="0" y="0"><path d="M 1074 822 L 1384 785 Q 1478 774, 1538 759 Q 1598 744, 1614 742 Q 1697 734, 1759.5 805.5 Q 1822 877, 1822 926 Q 1821 943, 1816 961 L 1804 992 Q 1792 1023, 1784 1075 L 1767 1185 Q 1755 1263, 1729 1354 Q 1703 1445, 1651 1563.5 Q 1599 1682, 1518 1760.5 Q 1437 1839, 1384 1880 Q 1331 1921, 1302 1937 L 1253 1964 Q 1222 1981, 1212.5 1979 Q 1203 1977, 1201.5 1971.5 Q 1200 1966, 1214 1951 L 1235 1922 L 1287 1866 Q 1345 1803, 1412.5 1690 Q 1480 1577, 1514.5 1457 Q 1549 1337, 1560 1272.5 Q 1571 1208, 1579 1146 Q 1587 1084, 1591 1046 Q 1595 1008, 1591 991 Q 1574 922, 1464 929 L 1333 938 L 1032 966 L 841 989 L 579 1040 Q 509 1054, 486.5 1060 Q 464 1066, 402 1084.5 Q 340 1103, 304 1115 Q 268 1127, 256 1126 Q 236 1126, 193.5 1086.5 Q 151 1047, 154 1006 Q 155 991, 166 970 L 186 935 Q 212 886, 228 819 Q 244 752, 248.5 727 Q 253 702, 259.5 649.5 Q 266 597, 270.5 568 Q 275 539, 276 521 Q 277 503, 283.5 491 Q 290 479, 316 481 Q 346 485, 395 514 Q 444 543, 459 560.5 Q 474 578, 474.5 595.5 Q 475 613, 461 640 Q 444 672, 438.5 687.5 Q 433 703, 427 738.5 Q 421 774, 416 810.5 Q 411 847, 407.5 877 Q 404 907, 409.5 916.5 Q 415 926, 422.5 928.5 Q 430 931, 470 921 L 557 901 Q 593 893, 884 844 L 1074 822 Z" fill="black" stroke-width="1"></path></g><g x="0" y="0"><path d="M 1146 268 Q 1138 360, 1132 419.5 Q 1126 479, 1114 586 Q 1102 693, 1092 737 L 1074 822 L 1032 966 Q 1006 1050, 984 1108.5 Q 962 1167, 875.5 1336 Q 789 1505, 613.5 1668.5 Q 438 1832, 299 1894 L 234 1923 Q 219 1930, 211.5 1922 Q 204 1914, 221 1899 L 259 1866 Q 372 1768, 500 1606.5 Q 628 1445, 701 1302 Q 774 1159, 796 1103 L 841 989 L 884 844 Q 910 710, 915 675 Q 920 640, 926 570.5 Q 932 501, 935 458.5 Q 938 416, 937.5 375.5 Q 937 335, 935 316 L 930 278 L 1146 268 Z" fill="black" stroke-width="1"></path></g></g></svg>