<svg xmlns="http://www.w3.org/2000/svg" width="2048" height="2048" viewBox="0 0 2048 2048" version="1.1"><g x="0" y="0"><g x="0" y="0"><path d="M 992 776 L 1352 735 L 1483 719 Q 1511 716, 1550.5 709 Q 1590 702, 1640 692 Q 1690 682, 1719 680 Q 1775 678, 1827 703 Q 1879 728, 1901 769 Q 1923 810, 1923.5 831.5 Q 1924 853, 1916 863 Q 1903 881, 1866 880 Q 1849 880, 1781 877.5 Q 1713 875, 1614 880 L 1521 885 Q 1425 891, 1343.5 899 Q 1262 907, 1203 913 L 1065 929 L 939 943 L 766 948 L 490 983 Q 468 986, 382 1001 Q 296 1016, 271 1014 Q 238 1013, 194 990.5 Q 150 968, 136.5 933 Q 123 898, 123 881.5 Q 123 865, 129 853 Q 134 843, 147 835.5 Q 160 828, 219 825 L 407 818 Q 651 809, 825 788 L 992 776 Z" fill="black" stroke-width="1"></path></g></g></svg>