<svg xmlns="http://www.w3.org/2000/svg" width="2048" height="2048" viewBox="0 0 2048 2048" version="1.1"><g x="0" y="0"><g x="0" y="0"><path d="M 992 776 L 1352 735 L 1483 719 Q 1511 716, 1550.5 709 Q 1590 702, 1640 692 Q 1690 682, 1719 680 Q 1775 678, 1827 703 Q 1879 728, 1901 769 Q 1923 810, 1923.5 831.5 Q 1924 853, 1916 863 Q 1903 881, 1866 880 Q 1849 880, 1781 877.5 Q 1713 875, 1614 880 L 1521 885 Q 1425 891, 1343.5 899 Q 1262 907, 1203 913 L 1065 929 L 939 943 L 766 948 L 490 983 Q 468 986, 382 1001 Q 296 1016, 271 1014 Q 238 1013, 194 990.5 Q 150 968, 136.5 933 Q 123 898, 123 881.5 Q 123 865, 129 853 Q 134 843, 147 835.5 Q 160 828, 219 825 L 407 818 Q 651 809, 825 788 L 992 776 Z" fill="black" stroke-width="1"></path></g><g x="0" y="0"><path d="M 825 788 Q 858 698, 885.5 606.5 Q 913 515, 926 463 L 942 399 Q 945 385, 952.5 319 Q 960 253, 965.5 228 Q 971 203, 1010 200 Q 1031 199, 1069.5 220 Q 1108 241, 1140.5 278.5 Q 1173 316, 1174.5 350 Q 1176 384, 1173 396 Q 1170 406, 1166.5 411 Q 1163 416, 1147.5 431.5 Q 1132 447, 1120 471 Q 1108 495, 1095 525.5 Q 1082 556, 1061 609 Q 1040 662, 1038 667 L 992 776 L 939 943 Q 891 1078, 858 1163 Q 825 1248, 809 1287 L 765 1392 L 722 1497 L 695 1560 Q 682 1591, 685 1608 Q 687 1622, 699.5 1635.5 Q 712 1649, 783 1639 L 929 1619 Q 1141 1590, 1465 1519 C 1602 1479.3333333333333, 1554 1589.6666666666667, 1501 1625 L 631 1833 Q 566 1849, 544 1849 Q 516 1850, 495.5 1838 Q 475 1826, 452 1788.5 Q 429 1751, 422 1731 Q 415 1711, 414.5 1697 Q 414 1683, 421 1667 Q 426 1654, 463.5 1602 Q 501 1550, 530.5 1501 Q 560 1452, 624.5 1311.5 Q 689 1171, 766 948 L 825 788 Z" fill="black" stroke-width="1"></path></g></g></svg>